 <svg version="1.1" viewBox="0 0 1000 960 " xmlns="http://www.w3.org/2000/svg">
    <g transform="scale(1 -1)">
    <g transform="translate(0 -960)">
	    <line id="y" x1="0" x2="0" y1="0" y2=" 960" fill="none" stroke="#212121" stroke-width="3"/> 
<polygon id="P1" points="400.0 185.0 650.0 185.0 650.0 255.0 400.0 255.0 " fill="#6B6B6B" stroke="#212121" stroke-width="2"/>
<polygon id="P2" points="497.0 10.0 598.0 19.0 604.0 102.0 549.0 165.0 447.0 141.0 " fill="#6B6B6B" stroke="#212121" stroke-width="2"/>
<polygon id="P3" points="320.0 165.0 380.0 165.0 380.0 285.0 510.0 285.0 510.0 305.0 420.0 305.0 320.0 305.0 " fill="#6B6B6B" stroke="#212121" stroke-width="2"/>
<polygon id="P4" points="300.0 55.0 360.0 45.0 380.0 135.0 320.0 145.0 " fill="#6B6B6B" stroke="#212121" stroke-width="2"/>
<polygon id="P5" points="200.0 35.0 280.0 35.0 280.0 215.0 200.0 215.0 " fill="#6B6B6B" stroke="#212121" stroke-width="2"/>
<polygon id="P6" points="170.0 215.0 300.0 265.0 300.0 325.0 180.0 305.0 150.0 245.0 " fill="#6B6B6B" stroke="#212121" stroke-width="2"/>
<polygon id="P7" points="90.0 35.0 130.0 95.0 170.0 55.0 180.0 155.0 120.0 195.0 70.0 135.0 " fill="#6B6B6B" stroke="#212121" stroke-width="2"/>
<polygon id="P8" points="400.0 125.0 430.0 145.0 410.0 175.0 380.0 155.0 " fill="#6B6B6B" stroke="#212121" stroke-width="2"/>
<polygon id="P9" points="90.0 225.0 140.0 225.0 130.0 265.0 90.0 285.0 " fill="#6B6B6B" stroke="#212121" stroke-width="2"/>
<polygon id="P10" points="540.0 280.0 541.0 280.0 800.0 280.0 800.0 400.0 540.0 400.0 " fill="#6B6B6B" stroke="#212121" stroke-width="2"/>
<polygon id="P11" points="380.0 340.0 381.0 340.0 520.0 340.0 460.0 380.0 540.0 440.0 720.0 460.0 420.0 460.0 140.0 440.0 140.0 300.0 280.0 380.0 " fill="#6B6B6B" stroke="#212121" stroke-width="2"/>
<polygon id="P12" points="80.0 300.0 81.0 300.0 140.0 280.0 120.0 360.0 " fill="#6B6B6B" stroke="#212121" stroke-width="2"/>
 <circle id="L" cx="621.0" cy="162.0" r="10" fill="#F42121" stroke="#000080" stroke-width="1"/>
 <polyline id="R1" points="497.0 10.0 380.0 135.0 " fill="none" stroke="#000080" stroke-width="4"/>
<polyline id="R2" points="120.0 195.0 90.0 225.0 " fill="none" stroke="#000080" stroke-width="4"/>
<polyline id="R3" points="604.0 102.0 800.0 280.0 " fill="none" stroke="#000080" stroke-width="4"/>
<polyline id="R4" points="320.0 165.0 380.0 155.0 " fill="none" stroke="#000080" stroke-width="4"/>
<polyline id="R5" points="540.0 280.0 541.0 280.0 " fill="none" stroke="#000080" stroke-width="4"/>
<polyline id="R6" points="380.0 340.0 381.0 340.0 " fill="none" stroke="#000080" stroke-width="4"/>
<polyline id="R7" points="80.0 300.0 81.0 300.0 " fill="none" stroke="#000080" stroke-width="4"/>
<polyline id="R8" points="447.0 141.0 410.0 175.0 " fill="none" stroke="#000080" stroke-width="4"/>
<polyline id="R9" points="320.0 165.0 400.0 125.0 " fill="none" stroke="#000080" stroke-width="4"/>
<polyline id="R10" points="650.0 185.0 604.0 102.0 " fill="none" stroke="#000080" stroke-width="4"/>
<polyline id="R11" points="380.0 165.0 320.0 145.0 " fill="none" stroke="#000080" stroke-width="4"/>
<polyline id="R12" points="650.0 185.0 800.0 280.0 " fill="none" stroke="#000080" stroke-width="4"/>
<polyline id="R13" points="400.0 125.0 380.0 155.0 " fill="none" stroke="#000080" stroke-width="4"/>
<polyline id="R14" points="447.0 141.0 430.0 145.0 " fill="none" stroke="#000080" stroke-width="4"/>
<polyline id="R15" points="300.0 325.0 280.0 380.0 " fill="none" stroke="#000080" stroke-width="4"/>
<polyline id="R16" points="180.0 305.0 130.0 265.0 " fill="none" stroke="#000080" stroke-width="4"/>
<polyline id="R17" points="170.0 215.0 140.0 225.0 " fill="none" stroke="#000080" stroke-width="4"/>
<polyline id="R18" points="180.0 305.0 140.0 280.0 " fill="none" stroke="#000080" stroke-width="4"/>
<polyline id="R19" points="150.0 245.0 140.0 225.0 " fill="none" stroke="#000080" stroke-width="4"/>
<polyline id="R20" points="430.0 145.0 410.0 175.0 " fill="none" stroke="#000080" stroke-width="4"/>
<polyline id="R21" points="650.0 255.0 380.0 285.0 " fill="none" stroke="#000080" stroke-width="4"/>
<polyline id="R22" points="320.0 305.0 280.0 380.0 " fill="none" stroke="#000080" stroke-width="4"/>
<polyline id="R23" points="497.0 10.0 400.0 125.0 " fill="none" stroke="#000080" stroke-width="4"/>
<polyline id="R24" points="380.0 135.0 400.0 125.0 " fill="none" stroke="#000080" stroke-width="4"/>
<polyline id="R25" points="320.0 305.0 300.0 325.0 " fill="none" stroke="#000080" stroke-width="4"/>
<polyline id="R26" points="90.0 285.0 0.0 336.97 " fill="none" stroke="#000080" stroke-width="4"/>
<polyline id="R27" points="400.0 185.0 447.0 141.0 " fill="none" stroke="#000080" stroke-width="4"/>
<polyline id="R28" points="400.0 185.0 410.0 175.0 " fill="none" stroke="#000080" stroke-width="4"/>
<polyline id="R29" points="380.0 135.0 380.0 155.0 " fill="none" stroke="#000080" stroke-width="4"/>
<polyline id="R30" points="320.0 165.0 380.0 135.0 " fill="none" stroke="#000080" stroke-width="4"/>
<polyline id="R31" points="320.0 145.0 280.0 215.0 " fill="none" stroke="#000080" stroke-width="4"/>
<polyline id="R32" points="300.0 55.0 280.0 35.0 " fill="none" stroke="#000080" stroke-width="4"/>
<polyline id="R33" points="170.0 215.0 150.0 245.0 " fill="none" stroke="#000080" stroke-width="4"/>
<polyline id="R34" points="380.0 165.0 380.0 135.0 " fill="none" stroke="#000080" stroke-width="4"/>
<polyline id="R35" points="130.0 265.0 140.0 280.0 " fill="none" stroke="#000080" stroke-width="4"/>
<polyline id="R36" points="140.0 440.0 120.0 360.0 " fill="none" stroke="#000080" stroke-width="4"/>
<polyline id="R37" points="180.0 305.0 140.0 300.0 " fill="none" stroke="#000080" stroke-width="4"/>
<polyline id="R38" points="80.0 300.0 0.0 346.2 " fill="none" stroke="#000080" stroke-width="4"/>
<polyline id="R39" points="540.0 400.0 540.0 440.0 " fill="none" stroke="#000080" stroke-width="4"/>
<polyline id="R40" points="320.0 165.0 280.0 215.0 " fill="none" stroke="#000080" stroke-width="4"/>
<polyline id="R41" points="380.0 135.0 320.0 145.0 " fill="none" stroke="#000080" stroke-width="4"/>
<polyline id="R42" points="510.0 285.0 510.0 305.0 " fill="none" stroke="#000080" stroke-width="4"/>
<polyline id="R43" points="90.0 35.0 0.0 86.97 " fill="none" stroke="#000080" stroke-width="4"/>
<polyline id="R44" points="200.0 215.0 180.0 155.0 " fill="none" stroke="#000080" stroke-width="4"/>
<polyline id="R45" points="320.0 165.0 320.0 145.0 " fill="none" stroke="#000080" stroke-width="4"/>
<polyline id="R46" points="140.0 300.0 140.0 280.0 " fill="none" stroke="#000080" stroke-width="4"/>
<polyline id="R47" points="320.0 145.0 380.0 155.0 " fill="none" stroke="#000080" stroke-width="4"/>
<polyline id="R48" points="200.0 215.0 300.0 265.0 " fill="none" stroke="#000080" stroke-width="4"/>
<polyline id="R49" points="90.0 285.0 81.0 300.0 " fill="none" stroke="#000080" stroke-width="4"/>
<polyline id="R50" points="320.0 165.0 380.0 165.0 " fill="none" stroke="#000080" stroke-width="4"/>
<polyline id="R51" points="90.0 285.0 80.0 300.0 " fill="none" stroke="#000080" stroke-width="4"/>
<polyline id="R52" points="380.0 165.0 380.0 155.0 " fill="none" stroke="#000080" stroke-width="4"/>
<polyline id="R53" points="300.0 325.0 381.0 340.0 " fill="none" stroke="#000080" stroke-width="4"/>
<polyline id="R54" points="300.0 325.0 380.0 340.0 " fill="none" stroke="#000080" stroke-width="4"/>
<polyline id="R55" points="130.0 95.0 170.0 55.0 " fill="none" stroke="#000080" stroke-width="4"/>
<polyline id="R56" points="180.0 155.0 140.0 225.0 " fill="none" stroke="#000080" stroke-width="4"/>
<polyline id="R57" points="400.0 185.0 400.0 255.0 " fill="none" stroke="#000080" stroke-width="4"/>
<polyline id="R58" points="650.0 185.0 650.0 255.0 " fill="none" stroke="#000080" stroke-width="4"/>
<polyline id="R59" points="140.0 440.0 80.0 300.0 " fill="none" stroke="#000080" stroke-width="4"/>
<polyline id="R60" points="300.0 265.0 300.0 325.0 " fill="none" stroke="#000080" stroke-width="4"/>
<polyline id="R61" points="650.0 255.0 800.0 280.0 " fill="none" stroke="#000080" stroke-width="4"/>
<polyline id="R62" points="150.0 245.0 180.0 155.0 " fill="none" stroke="#000080" stroke-width="4"/>
<polyline id="R63" points="549.0 165.0 621.0 162.0 " fill="none" stroke="#000080" stroke-width="4"/>
<polyline id="R64" points="380.0 340.0 280.0 380.0 " fill="none" stroke="#000080" stroke-width="4"/>
<polyline id="R65" points="170.0 215.0 180.0 155.0 " fill="none" stroke="#000080" stroke-width="4"/>
<polyline id="R66" points="320.0 305.0 300.0 265.0 " fill="none" stroke="#000080" stroke-width="4"/>
<polyline id="R67" points="320.0 305.0 381.0 340.0 " fill="none" stroke="#000080" stroke-width="4"/>
<polyline id="R68" points="320.0 305.0 380.0 340.0 " fill="none" stroke="#000080" stroke-width="4"/>
<polyline id="R69" points="510.0 305.0 420.0 305.0 " fill="none" stroke="#000080" stroke-width="4"/>
<polyline id="R70" points="170.0 215.0 300.0 265.0 " fill="none" stroke="#000080" stroke-width="4"/>
<polyline id="R71" points="540.0 280.0 520.0 340.0 " fill="none" stroke="#000080" stroke-width="4"/>
<polyline id="R72" points="300.0 55.0 360.0 45.0 " fill="none" stroke="#000080" stroke-width="4"/>
<polyline id="R73" points="200.0 215.0 170.0 215.0 " fill="none" stroke="#000080" stroke-width="4"/>
<polyline id="R74" points="400.0 255.0 541.0 280.0 " fill="none" stroke="#000080" stroke-width="4"/>
<polyline id="R75" points="400.0 255.0 540.0 280.0 " fill="none" stroke="#000080" stroke-width="4"/>
<polyline id="R76" points="80.0 300.0 120.0 360.0 " fill="none" stroke="#000080" stroke-width="4"/>
<polyline id="R77" points="70.0 135.0 0.0 175.42 " fill="none" stroke="#000080" stroke-width="4"/>
<polyline id="R78" points="650.0 185.0 598.0 19.0 " fill="none" stroke="#000080" stroke-width="4"/>
<polyline id="R79" points="447.0 141.0 360.0 45.0 " fill="none" stroke="#000080" stroke-width="4"/>
<polyline id="R80" points="200.0 35.0 170.0 55.0 " fill="none" stroke="#000080" stroke-width="4"/>
<polyline id="R81" points="720.0 460.0 0.0 875.76 " fill="none" stroke="#000080" stroke-width="4"/>
<polyline id="R82" points="360.0 45.0 430.0 145.0 " fill="none" stroke="#000080" stroke-width="4"/>
<polyline id="R83" points="120.0 195.0 70.0 135.0 " fill="none" stroke="#000080" stroke-width="4"/>
<polyline id="R84" points="70.0 135.0 90.0 225.0 " fill="none" stroke="#000080" stroke-width="4"/>
<polyline id="R85" points="598.0 19.0 800.0 280.0 " fill="none" stroke="#000080" stroke-width="4"/>
<polyline id="R86" points="360.0 45.0 280.0 35.0 " fill="none" stroke="#000080" stroke-width="4"/>
<polyline id="R87" points="598.0 19.0 604.0 102.0 " fill="none" stroke="#000080" stroke-width="4"/>
<polyline id="R88" points="380.0 285.0 510.0 285.0 " fill="none" stroke="#000080" stroke-width="4"/>
<polyline id="R89" points="200.0 215.0 170.0 55.0 " fill="none" stroke="#000080" stroke-width="4"/>
<polyline id="R90" points="140.0 280.0 120.0 360.0 " fill="none" stroke="#000080" stroke-width="4"/>
<polyline id="R91" points="400.0 255.0 380.0 155.0 " fill="none" stroke="#000080" stroke-width="4"/>
<polyline id="R92" points="540.0 280.0 540.0 400.0 " fill="none" stroke="#000080" stroke-width="4"/>
<polyline id="R93" points="598.0 19.0 621.0 162.0 " fill="none" stroke="#000080" stroke-width="4"/>
<polyline id="R94" points="800.0 280.0 800.0 400.0 " fill="none" stroke="#000080" stroke-width="4"/>
<polyline id="R95" points="540.0 400.0 720.0 460.0 " fill="none" stroke="#000080" stroke-width="4"/>
<polyline id="R96" points="200.0 35.0 90.0 35.0 " fill="none" stroke="#000080" stroke-width="4"/>
<polyline id="R97" points="180.0 155.0 90.0 225.0 " fill="none" stroke="#000080" stroke-width="4"/>
<polyline id="R98" points="180.0 155.0 120.0 195.0 " fill="none" stroke="#000080" stroke-width="4"/>
<polyline id="R99" points="650.0 255.0 510.0 285.0 " fill="none" stroke="#000080" stroke-width="4"/>
<polyline id="R100" points="200.0 35.0 170.0 215.0 " fill="none" stroke="#000080" stroke-width="4"/>
<polyline id="R101" points="140.0 440.0 140.0 300.0 " fill="none" stroke="#000080" stroke-width="4"/>
<polyline id="R102" points="300.0 265.0 120.0 195.0 " fill="none" stroke="#000080" stroke-width="4"/>
<polyline id="R103" points="540.0 280.0 540.0 440.0 " fill="none" stroke="#000080" stroke-width="4"/>
<polyline id="R104" points="140.0 440.0 140.0 280.0 " fill="none" stroke="#000080" stroke-width="4"/>
<polyline id="R105" points="200.0 215.0 120.0 195.0 " fill="none" stroke="#000080" stroke-width="4"/>
<polyline id="R106" points="90.0 35.0 130.0 95.0 " fill="none" stroke="#000080" stroke-width="4"/>
<polyline id="R107" points="510.0 305.0 300.0 325.0 " fill="none" stroke="#000080" stroke-width="4"/>
<polyline id="R108" points="360.0 45.0 400.0 125.0 " fill="none" stroke="#000080" stroke-width="4"/>
<polyline id="R109" points="70.0 135.0 140.0 225.0 " fill="none" stroke="#000080" stroke-width="4"/>
<polyline id="R110" points="140.0 300.0 120.0 360.0 " fill="none" stroke="#000080" stroke-width="4"/>
<polyline id="R111" points="170.0 55.0 180.0 155.0 " fill="none" stroke="#000080" stroke-width="4"/>
<polyline id="R112" points="650.0 185.0 549.0 165.0 " fill="none" stroke="#000080" stroke-width="4"/>
<polyline id="R113" points="400.0 255.0 380.0 165.0 " fill="none" stroke="#000080" stroke-width="4"/>
<polyline id="R114" points="90.0 35.0 70.0 135.0 " fill="none" stroke="#000080" stroke-width="4"/>
<polyline id="R115" points="540.0 440.0 720.0 460.0 " fill="none" stroke="#000080" stroke-width="4"/>
<polyline id="R116" points="604.0 102.0 549.0 165.0 " fill="none" stroke="#000080" stroke-width="4"/>
<polyline id="R117" points="420.0 305.0 381.0 340.0 " fill="none" stroke="#000080" stroke-width="4"/>
<polyline id="R118" points="420.0 305.0 380.0 340.0 " fill="none" stroke="#000080" stroke-width="4"/>
<polyline id="R119" points="497.0 10.0 360.0 45.0 " fill="none" stroke="#000080" stroke-width="4"/>
<polyline id="R120" points="510.0 305.0 320.0 305.0 " fill="none" stroke="#000080" stroke-width="4"/>
<polyline id="R121" points="497.0 10.0 280.0 35.0 " fill="none" stroke="#000080" stroke-width="4"/>
<polyline id="R122" points="360.0 45.0 380.0 135.0 " fill="none" stroke="#000080" stroke-width="4"/>
<polyline id="R123" points="120.0 360.0 0.0 429.29 " fill="none" stroke="#000080" stroke-width="4"/>
<polyline id="R124" points="497.0 10.0 430.0 145.0 " fill="none" stroke="#000080" stroke-width="4"/>
<polyline id="R125" points="200.0 35.0 180.0 155.0 " fill="none" stroke="#000080" stroke-width="4"/>
<polyline id="R126" points="170.0 215.0 90.0 225.0 " fill="none" stroke="#000080" stroke-width="4"/>
<polyline id="R127" points="170.0 215.0 120.0 195.0 " fill="none" stroke="#000080" stroke-width="4"/>
<polyline id="R128" points="497.0 10.0 447.0 141.0 " fill="none" stroke="#000080" stroke-width="4"/>
<polyline id="R129" points="300.0 55.0 320.0 145.0 " fill="none" stroke="#000080" stroke-width="4"/>
<polyline id="R130" points="130.0 265.0 90.0 285.0 " fill="none" stroke="#000080" stroke-width="4"/>
<polyline id="R131" points="400.0 185.0 380.0 155.0 " fill="none" stroke="#000080" stroke-width="4"/>
<polyline id="R132" points="540.0 400.0 520.0 340.0 " fill="none" stroke="#000080" stroke-width="4"/>
<polyline id="R133" points="400.0 125.0 430.0 145.0 " fill="none" stroke="#000080" stroke-width="4"/>
<polyline id="R134" points="410.0 175.0 380.0 155.0 " fill="none" stroke="#000080" stroke-width="4"/>
<polyline id="R135" points="300.0 55.0 280.0 215.0 " fill="none" stroke="#000080" stroke-width="4"/>
<polyline id="R136" points="90.0 285.0 140.0 280.0 " fill="none" stroke="#000080" stroke-width="4"/>
<polyline id="R137" points="120.0 195.0 140.0 225.0 " fill="none" stroke="#000080" stroke-width="4"/>
<polyline id="R138" points="90.0 225.0 140.0 225.0 " fill="none" stroke="#000080" stroke-width="4"/>
<polyline id="R139" points="420.0 460.0 0.0 702.53 " fill="none" stroke="#000080" stroke-width="4"/>
<polyline id="R140" points="320.0 165.0 280.0 35.0 " fill="none" stroke="#000080" stroke-width="4"/>
<polyline id="R141" points="447.0 141.0 400.0 125.0 " fill="none" stroke="#000080" stroke-width="4"/>
<polyline id="R142" points="497.0 10.0 300.0 55.0 " fill="none" stroke="#000080" stroke-width="4"/>
<polyline id="R143" points="130.0 265.0 0.0 340.07 " fill="none" stroke="#000080" stroke-width="4"/>
<polyline id="R144" points="420.0 305.0 320.0 305.0 " fill="none" stroke="#000080" stroke-width="4"/>
<polyline id="R145" points="320.0 145.0 410.0 175.0 " fill="none" stroke="#000080" stroke-width="4"/>
<polyline id="R146" points="510.0 305.0 381.0 340.0 " fill="none" stroke="#000080" stroke-width="4"/>
<polyline id="R147" points="510.0 305.0 380.0 340.0 " fill="none" stroke="#000080" stroke-width="4"/>
<polyline id="R148" points="90.0 35.0 170.0 55.0 " fill="none" stroke="#000080" stroke-width="4"/>
<polyline id="R149" points="80.0 300.0 140.0 280.0 " fill="none" stroke="#000080" stroke-width="4"/>
<polyline id="R150" points="320.0 145.0 280.0 35.0 " fill="none" stroke="#000080" stroke-width="4"/>
<polyline id="R151" points="81.0 300.0 140.0 280.0 " fill="none" stroke="#000080" stroke-width="4"/>
<polyline id="R152" points="380.0 165.0 410.0 175.0 " fill="none" stroke="#000080" stroke-width="4"/>
<polyline id="R153" points="400.0 185.0 380.0 165.0 " fill="none" stroke="#000080" stroke-width="4"/>
<polyline id="R154" points="420.0 305.0 280.0 380.0 " fill="none" stroke="#000080" stroke-width="4"/>
<polyline id="R155" points="200.0 35.0 200.0 215.0 " fill="none" stroke="#000080" stroke-width="4"/>
<polyline id="R156" points="604.0 102.0 621.0 162.0 " fill="none" stroke="#000080" stroke-width="4"/>
<polyline id="R157" points="280.0 35.0 280.0 215.0 " fill="none" stroke="#000080" stroke-width="4"/>
<polyline id="R158" points="130.0 265.0 81.0 300.0 " fill="none" stroke="#000080" stroke-width="4"/>
<polyline id="R159" points="130.0 265.0 80.0 300.0 " fill="none" stroke="#000080" stroke-width="4"/>
<polyline id="R160" points="800.0 280.0 621.0 162.0 " fill="none" stroke="#000080" stroke-width="4"/>
<polyline id="R161" points="520.0 340.0 540.0 440.0 " fill="none" stroke="#000080" stroke-width="4"/>
<polyline id="R162" points="650.0 185.0 621.0 162.0 " fill="none" stroke="#000080" stroke-width="4"/>
<polyline id="R163" points="420.0 305.0 300.0 325.0 " fill="none" stroke="#000080" stroke-width="4"/>
<polyline id="R164" points="320.0 165.0 300.0 55.0 " fill="none" stroke="#000080" stroke-width="4"/>
<polyline id="R165" points="650.0 185.0 410.0 175.0 " fill="none" stroke="#000080" stroke-width="4"/>
<polyline id="R166" points="650.0 185.0 430.0 145.0 " fill="none" stroke="#000080" stroke-width="4"/>
<polyline id="R167" points="400.0 255.0 380.0 285.0 " fill="none" stroke="#000080" stroke-width="4"/>
<polyline id="R168" points="497.0 10.0 200.0 35.0 " fill="none" stroke="#000080" stroke-width="4"/>
<polyline id="R169" points="800.0 400.0 540.0 440.0 " fill="none" stroke="#000080" stroke-width="4"/>
<polyline id="R170" points="460.0 380.0 540.0 440.0 " fill="none" stroke="#000080" stroke-width="4"/>
<polyline id="R171" points="400.0 185.0 650.0 185.0 " fill="none" stroke="#000080" stroke-width="4"/>
<polyline id="R172" points="650.0 255.0 400.0 255.0 " fill="none" stroke="#000080" stroke-width="4"/>
<polyline id="R173" points="280.0 35.0 300.0 265.0 " fill="none" stroke="#000080" stroke-width="4"/>
<polyline id="R174" points="320.0 305.0 520.0 340.0 " fill="none" stroke="#000080" stroke-width="4"/>
<polyline id="R175" points="300.0 325.0 520.0 340.0 " fill="none" stroke="#000080" stroke-width="4"/>
<polyline id="R176" points="800.0 400.0 540.0 400.0 " fill="none" stroke="#000080" stroke-width="4"/>
<polyline id="R177" points="541.0 280.0 800.0 280.0 " fill="none" stroke="#000080" stroke-width="4"/>
<polyline id="R178" points="300.0 55.0 300.0 265.0 " fill="none" stroke="#000080" stroke-width="4"/>
<polyline id="R179" points="540.0 400.0 460.0 380.0 " fill="none" stroke="#000080" stroke-width="4"/>
<polyline id="R180" points="140.0 440.0 0.0 520.84 " fill="none" stroke="#000080" stroke-width="4"/>
<polyline id="R181" points="280.0 35.0 90.0 35.0 " fill="none" stroke="#000080" stroke-width="4"/>
<polyline id="R182" points="510.0 305.0 540.0 400.0 " fill="none" stroke="#000080" stroke-width="4"/>
<polyline id="R183" points="510.0 285.0 540.0 440.0 " fill="none" stroke="#000080" stroke-width="4"/>
<polyline id="R184" points="400.0 185.0 380.0 285.0 " fill="none" stroke="#000080" stroke-width="4"/>
<polyline id="R185" points="320.0 305.0 280.0 35.0 " fill="none" stroke="#000080" stroke-width="4"/>
<polyline id="R186" points="400.0 255.0 800.0 280.0 " fill="none" stroke="#000080" stroke-width="4"/>
<polyline id="R187" points="140.0 225.0 140.0 440.0 " fill="none" stroke="#000080" stroke-width="4"/>
<polyline id="R188" points="420.0 460.0 140.0 440.0 " fill="none" stroke="#000080" stroke-width="4"/>
<polyline id="R189" points="380.0 285.0 540.0 280.0 " fill="none" stroke="#000080" stroke-width="4"/>
<polyline id="R190" points="320.0 305.0 300.0 55.0 " fill="none" stroke="#000080" stroke-width="4"/>
<polyline id="R191" points="510.0 285.0 540.0 400.0 " fill="none" stroke="#000080" stroke-width="4"/>
<polyline id="R192" points="650.0 255.0 541.0 280.0 " fill="none" stroke="#000080" stroke-width="4"/>
<polyline id="R193" points="650.0 255.0 540.0 280.0 " fill="none" stroke="#000080" stroke-width="4"/>
<polyline id="R194" points="300.0 325.0 300.0 55.0 " fill="none" stroke="#000080" stroke-width="4"/>
<polyline id="R195" points="150.0 245.0 120.0 360.0 " fill="none" stroke="#000080" stroke-width="4"/>
<polyline id="R196" points="720.0 460.0 420.0 460.0 " fill="none" stroke="#000080" stroke-width="4"/>
<polyline id="R197" points="381.0 340.0 520.0 340.0 " fill="none" stroke="#000080" stroke-width="4"/>
<polyline id="R198" points="497.0 10.0 90.0 35.0 " fill="none" stroke="#000080" stroke-width="4"/>
<polyline id="R199" points="380.0 285.0 380.0 155.0 " fill="none" stroke="#000080" stroke-width="4"/>
<polyline id="R200" points="70.0 135.0 90.0 285.0 " fill="none" stroke="#000080" stroke-width="4"/>
<polyline id="R201" points="380.0 340.0 140.0 300.0 " fill="none" stroke="#000080" stroke-width="4"/>
<polyline id="R202" points="381.0 340.0 140.0 300.0 " fill="none" stroke="#000080" stroke-width="4"/>
<polyline id="R203" points="400.0 255.0 510.0 285.0 " fill="none" stroke="#000080" stroke-width="4"/>
<polyline id="R204" points="320.0 165.0 300.0 325.0 " fill="none" stroke="#000080" stroke-width="4"/>
<polyline id="R205" points="510.0 305.0 520.0 340.0 " fill="none" stroke="#000080" stroke-width="4"/>
<polyline id="R206" points="320.0 165.0 320.0 305.0 " fill="none" stroke="#000080" stroke-width="4"/>
<polyline id="R207" points="380.0 285.0 380.0 135.0 " fill="none" stroke="#000080" stroke-width="4"/>
<polyline id="R208" points="320.0 305.0 320.0 145.0 " fill="none" stroke="#000080" stroke-width="4"/>
<polyline id="R209" points="180.0 155.0 130.0 265.0 " fill="none" stroke="#000080" stroke-width="4"/>
<polyline id="R210" points="400.0 185.0 549.0 165.0 " fill="none" stroke="#000080" stroke-width="4"/>
<polyline id="R211" points="180.0 305.0 381.0 340.0 " fill="none" stroke="#000080" stroke-width="4"/>
<polyline id="R212" points="180.0 305.0 380.0 340.0 " fill="none" stroke="#000080" stroke-width="4"/>
<polyline id="R213" points="800.0 400.0 720.0 460.0 " fill="none" stroke="#000080" stroke-width="4"/>
<polyline id="R214" points="90.0 225.0 0.0 276.97 " fill="none" stroke="#000080" stroke-width="4"/>
<polyline id="R215" points="460.0 380.0 720.0 460.0 " fill="none" stroke="#000080" stroke-width="4"/>
<polyline id="R216" points="549.0 165.0 447.0 141.0 " fill="none" stroke="#000080" stroke-width="4"/>
<polyline id="R217" points="280.0 215.0 170.0 215.0 " fill="none" stroke="#000080" stroke-width="4"/>
<polyline id="R218" points="120.0 195.0 0.0 264.29 " fill="none" stroke="#000080" stroke-width="4"/>
<polyline id="R219" points="549.0 165.0 410.0 175.0 " fill="none" stroke="#000080" stroke-width="4"/>
<polyline id="R220" points="380.0 165.0 380.0 285.0 " fill="none" stroke="#000080" stroke-width="4"/>
<polyline id="R221" points="320.0 145.0 300.0 325.0 " fill="none" stroke="#000080" stroke-width="4"/>
<polyline id="R222" points="70.0 135.0 81.0 300.0 " fill="none" stroke="#000080" stroke-width="4"/>
<polyline id="R223" points="70.0 135.0 80.0 300.0 " fill="none" stroke="#000080" stroke-width="4"/>
<polyline id="R224" points="497.0 10.0 598.0 19.0 " fill="none" stroke="#000080" stroke-width="4"/>
<polyline id="R225" points="549.0 165.0 430.0 145.0 " fill="none" stroke="#000080" stroke-width="4"/>
<polyline id="R226" points="320.0 165.0 300.0 265.0 " fill="none" stroke="#000080" stroke-width="4"/>
<polyline id="R227" points="510.0 285.0 520.0 340.0 " fill="none" stroke="#000080" stroke-width="4"/>
<polyline id="R228" points="320.0 305.0 280.0 215.0 " fill="none" stroke="#000080" stroke-width="4"/>
<polyline id="R229" points="150.0 245.0 140.0 300.0 " fill="none" stroke="#000080" stroke-width="4"/>
<polyline id="R230" points="140.0 300.0 280.0 380.0 " fill="none" stroke="#000080" stroke-width="4"/>
<polyline id="R231" points="90.0 225.0 81.0 300.0 " fill="none" stroke="#000080" stroke-width="4"/>
<polyline id="R232" points="90.0 225.0 80.0 300.0 " fill="none" stroke="#000080" stroke-width="4"/>
<polyline id="R233" points="420.0 305.0 520.0 340.0 " fill="none" stroke="#000080" stroke-width="4"/>
<polyline id="R234" points="300.0 325.0 140.0 300.0 " fill="none" stroke="#000080" stroke-width="4"/>
<polyline id="R235" points="510.0 305.0 540.0 280.0 " fill="none" stroke="#000080" stroke-width="4"/>
<polyline id="R236" points="140.0 225.0 140.0 300.0 " fill="none" stroke="#000080" stroke-width="4"/>
<polyline id="R237" points="200.0 35.0 280.0 35.0 " fill="none" stroke="#000080" stroke-width="4"/>
<polyline id="R238" points="280.0 215.0 200.0 215.0 " fill="none" stroke="#000080" stroke-width="4"/>
<polyline id="R239" points="180.0 305.0 280.0 380.0 " fill="none" stroke="#000080" stroke-width="4"/>
<polyline id="R240" points="400.0 185.0 621.0 162.0 " fill="none" stroke="#000080" stroke-width="4"/>
<polyline id="R241" points="510.0 285.0 540.0 280.0 " fill="none" stroke="#000080" stroke-width="4"/>
<polyline id="R242" points="180.0 305.0 150.0 245.0 " fill="none" stroke="#000080" stroke-width="4"/>
<polyline id="R243" points="180.0 305.0 140.0 225.0 " fill="none" stroke="#000080" stroke-width="4"/>
<polyline id="R244" points="280.0 215.0 300.0 265.0 " fill="none" stroke="#000080" stroke-width="4"/>
<polyline id="R245" points="150.0 245.0 130.0 265.0 " fill="none" stroke="#000080" stroke-width="4"/>
<polyline id="R246" points="300.0 325.0 180.0 305.0 " fill="none" stroke="#000080" stroke-width="4"/>
<polyline id="R247" points="140.0 225.0 130.0 265.0 " fill="none" stroke="#000080" stroke-width="4"/>
<polyline id="R248" points="520.0 340.0 460.0 380.0 " fill="none" stroke="#000080" stroke-width="4"/>
<polyline id="R249" points="280.0 380.0 140.0 280.0 " fill="none" stroke="#000080" stroke-width="4"/>
<polyline id="R250" points="320.0 145.0 300.0 265.0 " fill="none" stroke="#000080" stroke-width="4"/>
<polyline id="R251" points="170.0 215.0 130.0 265.0 " fill="none" stroke="#000080" stroke-width="4"/>
<polyline id="R252" points="150.0 245.0 140.0 280.0 " fill="none" stroke="#000080" stroke-width="4"/>
<polyline id="R253" points="140.0 225.0 140.0 280.0 " fill="none" stroke="#000080" stroke-width="4"/>
<polyline id="R254" points="410.0 175.0 621.0 162.0 " fill="none" stroke="#000080" stroke-width="4"/>
<polyline id="R255" points="90.0 225.0 90.0 285.0 " fill="none" stroke="#000080" stroke-width="4"/>
</g>
    </g>
    </svg>