 <svg version="1.1" viewBox="0 0 961 866 " xmlns="http://www.w3.org/2000/svg">
    <g transform="scale(1 -1)">
    <g transform="translate(0 -866)">
	    <line id="y" x1="0" x2="0" y1="0" y2=" 866" fill="none" stroke="#212121" stroke-width="3"/> 
<polygon id="P1" points="539.0 98.0 549.0 98.0 599.0 118.0 569.0 158.0 519.0 198.0 489.0 138.0 " fill="#6B6B6B" stroke="#212121" stroke-width="2"/>
<polygon id="P2" points="559.0 178.0 569.0 178.0 609.0 248.0 519.0 238.0 " fill="#6B6B6B" stroke="#212121" stroke-width="2"/>
<polygon id="P3" points="389.0 78.0 459.0 68.0 599.0 68.0 479.0 88.0 459.0 178.0 509.0 248.0 599.0 258.0 499.0 298.0 " fill="#6B6B6B" stroke="#212121" stroke-width="2"/>
<polygon id="P4" points="320.0 98.0 330.0 98.0 370.0 118.0 360.0 158.0 330.0 198.0 300.0 158.0 280.0 118.0 " fill="#6B6B6B" stroke="#212121" stroke-width="2"/>
<polygon id="P5" points="380.0 208.0 390.0 188.0 430.0 208.0 380.0 228.0 390.0 288.0 360.0 248.0 340.0 208.0 " fill="#6B6B6B" stroke="#212121" stroke-width="2"/>
<polygon id="P6" points="352.0 287.0 445.0 305.0 386.0 366.0 291.0 296.0 " fill="#6B6B6B" stroke="#212121" stroke-width="2"/>
<polygon id="P7" points="319.0 18.0 293.0 53.0 365.0 80.0 238.0 73.0 257.0 15.0 " fill="#6B6B6B" stroke="#212121" stroke-width="2"/>
<polygon id="P8" points="637.0 248.0 516.0 330.0 426.0 238.0 462.0 302.0 451.0 350.0 613.0 348.0 761.0 346.0 754.0 231.0 685.0 183.0 " fill="#6B6B6B" stroke="#212121" stroke-width="2"/>
 <circle id="L" cx="479.0" cy="168.0" r="10" fill="#F42121" stroke="#000080" stroke-width="1"/>
 <polyline id="R1" points="599.0 68.0 754.0 231.0 " fill="none" stroke="#000080" stroke-width="4"/>
<polyline id="R2" points="390.0 188.0 365.0 80.0 " fill="none" stroke="#000080" stroke-width="4"/>
<polyline id="R3" points="330.0 198.0 340.0 208.0 " fill="none" stroke="#000080" stroke-width="4"/>
<polyline id="R4" points="599.0 68.0 685.0 183.0 " fill="none" stroke="#000080" stroke-width="4"/>
<polyline id="R5" points="320.0 98.0 330.0 98.0 " fill="none" stroke="#000080" stroke-width="4"/>
<polyline id="R6" points="330.0 198.0 0.0 388.56 " fill="none" stroke="#000080" stroke-width="4"/>
<polyline id="R7" points="386.0 366.0 462.0 302.0 " fill="none" stroke="#000080" stroke-width="4"/>
<polyline id="R8" points="516.0 330.0 426.0 238.0 " fill="none" stroke="#000080" stroke-width="4"/>
<polyline id="R9" points="569.0 178.0 637.0 248.0 " fill="none" stroke="#000080" stroke-width="4"/>
<polyline id="R10" points="459.0 178.0 479.0 168.0 " fill="none" stroke="#000080" stroke-width="4"/>
<polyline id="R11" points="340.0 208.0 0.0 404.33 " fill="none" stroke="#000080" stroke-width="4"/>
<polyline id="R12" points="445.0 305.0 451.0 350.0 " fill="none" stroke="#000080" stroke-width="4"/>
<polyline id="R13" points="569.0 178.0 609.0 248.0 " fill="none" stroke="#000080" stroke-width="4"/>
<polyline id="R14" points="319.0 18.0 365.0 80.0 " fill="none" stroke="#000080" stroke-width="4"/>
<polyline id="R15" points="489.0 138.0 479.0 168.0 " fill="none" stroke="#000080" stroke-width="4"/>
<polyline id="R16" points="330.0 98.0 365.0 80.0 " fill="none" stroke="#000080" stroke-width="4"/>
<polyline id="R17" points="559.0 178.0 569.0 178.0 " fill="none" stroke="#000080" stroke-width="4"/>
<polyline id="R18" points="360.0 248.0 340.0 208.0 " fill="none" stroke="#000080" stroke-width="4"/>
<polyline id="R19" points="754.0 231.0 685.0 183.0 " fill="none" stroke="#000080" stroke-width="4"/>
<polyline id="R20" points="489.0 138.0 459.0 178.0 " fill="none" stroke="#000080" stroke-width="4"/>
<polyline id="R21" points="599.0 258.0 516.0 330.0 " fill="none" stroke="#000080" stroke-width="4"/>
<polyline id="R22" points="609.0 248.0 637.0 248.0 " fill="none" stroke="#000080" stroke-width="4"/>
<polyline id="R23" points="330.0 198.0 360.0 248.0 " fill="none" stroke="#000080" stroke-width="4"/>
<polyline id="R24" points="320.0 98.0 365.0 80.0 " fill="none" stroke="#000080" stroke-width="4"/>
<polyline id="R25" points="330.0 198.0 380.0 208.0 " fill="none" stroke="#000080" stroke-width="4"/>
<polyline id="R26" points="569.0 158.0 637.0 248.0 " fill="none" stroke="#000080" stroke-width="4"/>
<polyline id="R27" points="300.0 158.0 360.0 248.0 " fill="none" stroke="#000080" stroke-width="4"/>
<polyline id="R28" points="319.0 18.0 257.0 15.0 " fill="none" stroke="#000080" stroke-width="4"/>
<polyline id="R29" points="519.0 198.0 519.0 238.0 " fill="none" stroke="#000080" stroke-width="4"/>
<polyline id="R30" points="380.0 208.0 340.0 208.0 " fill="none" stroke="#000080" stroke-width="4"/>
<polyline id="R31" points="390.0 288.0 445.0 305.0 " fill="none" stroke="#000080" stroke-width="4"/>
<polyline id="R32" points="569.0 158.0 569.0 178.0 " fill="none" stroke="#000080" stroke-width="4"/>
<polyline id="R33" points="330.0 98.0 370.0 118.0 " fill="none" stroke="#000080" stroke-width="4"/>
<polyline id="R34" points="293.0 53.0 365.0 80.0 " fill="none" stroke="#000080" stroke-width="4"/>
<polyline id="R35" points="430.0 208.0 516.0 330.0 " fill="none" stroke="#000080" stroke-width="4"/>
<polyline id="R36" points="599.0 118.0 599.0 68.0 " fill="none" stroke="#000080" stroke-width="4"/>
<polyline id="R37" points="599.0 118.0 754.0 231.0 " fill="none" stroke="#000080" stroke-width="4"/>
<polyline id="R38" points="370.0 118.0 365.0 80.0 " fill="none" stroke="#000080" stroke-width="4"/>
<polyline id="R39" points="569.0 158.0 559.0 178.0 " fill="none" stroke="#000080" stroke-width="4"/>
<polyline id="R40" points="599.0 118.0 685.0 183.0 " fill="none" stroke="#000080" stroke-width="4"/>
<polyline id="R41" points="430.0 208.0 426.0 238.0 " fill="none" stroke="#000080" stroke-width="4"/>
<polyline id="R42" points="389.0 78.0 360.0 158.0 " fill="none" stroke="#000080" stroke-width="4"/>
<polyline id="R43" points="539.0 98.0 549.0 98.0 " fill="none" stroke="#000080" stroke-width="4"/>
<polyline id="R44" points="569.0 158.0 609.0 248.0 " fill="none" stroke="#000080" stroke-width="4"/>
<polyline id="R45" points="370.0 118.0 390.0 188.0 " fill="none" stroke="#000080" stroke-width="4"/>
<polyline id="R46" points="330.0 198.0 300.0 158.0 " fill="none" stroke="#000080" stroke-width="4"/>
<polyline id="R47" points="319.0 18.0 293.0 53.0 " fill="none" stroke="#000080" stroke-width="4"/>
<polyline id="R48" points="430.0 208.0 365.0 80.0 " fill="none" stroke="#000080" stroke-width="4"/>
<polyline id="R49" points="389.0 78.0 459.0 68.0 " fill="none" stroke="#000080" stroke-width="4"/>
<polyline id="R50" points="390.0 188.0 430.0 208.0 " fill="none" stroke="#000080" stroke-width="4"/>
<polyline id="R51" points="390.0 288.0 462.0 302.0 " fill="none" stroke="#000080" stroke-width="4"/>
<polyline id="R52" points="370.0 118.0 516.0 330.0 " fill="none" stroke="#000080" stroke-width="4"/>
<polyline id="R53" points="320.0 98.0 280.0 118.0 " fill="none" stroke="#000080" stroke-width="4"/>
<polyline id="R54" points="569.0 158.0 519.0 238.0 " fill="none" stroke="#000080" stroke-width="4"/>
<polyline id="R55" points="509.0 248.0 599.0 258.0 " fill="none" stroke="#000080" stroke-width="4"/>
<polyline id="R56" points="549.0 98.0 599.0 68.0 " fill="none" stroke="#000080" stroke-width="4"/>
<polyline id="R57" points="360.0 248.0 0.0 455.88 " fill="none" stroke="#000080" stroke-width="4"/>
<polyline id="R58" points="360.0 158.0 380.0 208.0 " fill="none" stroke="#000080" stroke-width="4"/>
<polyline id="R59" points="519.0 198.0 559.0 178.0 " fill="none" stroke="#000080" stroke-width="4"/>
<polyline id="R60" points="499.0 298.0 637.0 248.0 " fill="none" stroke="#000080" stroke-width="4"/>
<polyline id="R61" points="445.0 305.0 386.0 366.0 " fill="none" stroke="#000080" stroke-width="4"/>
<polyline id="R62" points="549.0 98.0 599.0 118.0 " fill="none" stroke="#000080" stroke-width="4"/>
<polyline id="R63" points="569.0 158.0 519.0 198.0 " fill="none" stroke="#000080" stroke-width="4"/>
<polyline id="R64" points="489.0 138.0 509.0 248.0 " fill="none" stroke="#000080" stroke-width="4"/>
<polyline id="R65" points="389.0 78.0 380.0 208.0 " fill="none" stroke="#000080" stroke-width="4"/>
<polyline id="R66" points="539.0 98.0 599.0 68.0 " fill="none" stroke="#000080" stroke-width="4"/>
<polyline id="R67" points="445.0 305.0 462.0 302.0 " fill="none" stroke="#000080" stroke-width="4"/>
<polyline id="R68" points="609.0 248.0 519.0 238.0 " fill="none" stroke="#000080" stroke-width="4"/>
<polyline id="R69" points="386.0 366.0 451.0 350.0 " fill="none" stroke="#000080" stroke-width="4"/>
<polyline id="R70" points="509.0 248.0 479.0 168.0 " fill="none" stroke="#000080" stroke-width="4"/>
<polyline id="R71" points="360.0 158.0 340.0 208.0 " fill="none" stroke="#000080" stroke-width="4"/>
<polyline id="R72" points="559.0 178.0 519.0 238.0 " fill="none" stroke="#000080" stroke-width="4"/>
<polyline id="R73" points="352.0 287.0 291.0 296.0 " fill="none" stroke="#000080" stroke-width="4"/>
<polyline id="R74" points="365.0 80.0 516.0 330.0 " fill="none" stroke="#000080" stroke-width="4"/>
<polyline id="R75" points="238.0 73.0 0.0 210.43 " fill="none" stroke="#000080" stroke-width="4"/>
<polyline id="R76" points="280.0 118.0 0.0 279.68 " fill="none" stroke="#000080" stroke-width="4"/>
<polyline id="R77" points="370.0 118.0 430.0 208.0 " fill="none" stroke="#000080" stroke-width="4"/>
<polyline id="R78" points="360.0 158.0 330.0 198.0 " fill="none" stroke="#000080" stroke-width="4"/>
<polyline id="R79" points="459.0 178.0 509.0 248.0 " fill="none" stroke="#000080" stroke-width="4"/>
<polyline id="R80" points="462.0 302.0 451.0 350.0 " fill="none" stroke="#000080" stroke-width="4"/>
<polyline id="R81" points="479.0 88.0 509.0 248.0 " fill="none" stroke="#000080" stroke-width="4"/>
<polyline id="R82" points="609.0 248.0 685.0 183.0 " fill="none" stroke="#000080" stroke-width="4"/>
<polyline id="R83" points="599.0 118.0 569.0 158.0 " fill="none" stroke="#000080" stroke-width="4"/>
<polyline id="R84" points="360.0 158.0 430.0 208.0 " fill="none" stroke="#000080" stroke-width="4"/>
<polyline id="R85" points="609.0 248.0 599.0 68.0 " fill="none" stroke="#000080" stroke-width="4"/>
<polyline id="R86" points="569.0 178.0 685.0 183.0 " fill="none" stroke="#000080" stroke-width="4"/>
<polyline id="R87" points="599.0 68.0 637.0 248.0 " fill="none" stroke="#000080" stroke-width="4"/>
<polyline id="R88" points="380.0 208.0 390.0 188.0 " fill="none" stroke="#000080" stroke-width="4"/>
<polyline id="R89" points="613.0 348.0 761.0 346.0 " fill="none" stroke="#000080" stroke-width="4"/>
<polyline id="R90" points="459.0 68.0 293.0 53.0 " fill="none" stroke="#000080" stroke-width="4"/>
<polyline id="R91" points="352.0 287.0 462.0 302.0 " fill="none" stroke="#000080" stroke-width="4"/>
<polyline id="R92" points="386.0 366.0 0.0 588.89 " fill="none" stroke="#000080" stroke-width="4"/>
<polyline id="R93" points="459.0 68.0 319.0 18.0 " fill="none" stroke="#000080" stroke-width="4"/>
<polyline id="R94" points="637.0 248.0 685.0 183.0 " fill="none" stroke="#000080" stroke-width="4"/>
<polyline id="R95" points="599.0 118.0 637.0 248.0 " fill="none" stroke="#000080" stroke-width="4"/>
<polyline id="R96" points="370.0 118.0 380.0 208.0 " fill="none" stroke="#000080" stroke-width="4"/>
<polyline id="R97" points="599.0 118.0 569.0 178.0 " fill="none" stroke="#000080" stroke-width="4"/>
<polyline id="R98" points="291.0 296.0 238.0 73.0 " fill="none" stroke="#000080" stroke-width="4"/>
<polyline id="R99" points="459.0 68.0 365.0 80.0 " fill="none" stroke="#000080" stroke-width="4"/>
<polyline id="R100" points="761.0 346.0 0.0 785.43 " fill="none" stroke="#000080" stroke-width="4"/>
<polyline id="R101" points="389.0 78.0 430.0 208.0 " fill="none" stroke="#000080" stroke-width="4"/>
<polyline id="R102" points="330.0 198.0 390.0 188.0 " fill="none" stroke="#000080" stroke-width="4"/>
<polyline id="R103" points="599.0 118.0 609.0 248.0 " fill="none" stroke="#000080" stroke-width="4"/>
<polyline id="R104" points="599.0 118.0 559.0 178.0 " fill="none" stroke="#000080" stroke-width="4"/>
<polyline id="R105" points="569.0 158.0 685.0 183.0 " fill="none" stroke="#000080" stroke-width="4"/>
<polyline id="R106" points="390.0 188.0 340.0 208.0 " fill="none" stroke="#000080" stroke-width="4"/>
<polyline id="R107" points="599.0 118.0 519.0 238.0 " fill="none" stroke="#000080" stroke-width="4"/>
<polyline id="R108" points="360.0 158.0 390.0 188.0 " fill="none" stroke="#000080" stroke-width="4"/>
<polyline id="R109" points="389.0 78.0 370.0 118.0 " fill="none" stroke="#000080" stroke-width="4"/>
<polyline id="R110" points="352.0 287.0 238.0 73.0 " fill="none" stroke="#000080" stroke-width="4"/>
<polyline id="R111" points="390.0 288.0 352.0 287.0 " fill="none" stroke="#000080" stroke-width="4"/>
<polyline id="R112" points="389.0 78.0 293.0 53.0 " fill="none" stroke="#000080" stroke-width="4"/>
<polyline id="R113" points="300.0 158.0 280.0 118.0 " fill="none" stroke="#000080" stroke-width="4"/>
<polyline id="R114" points="380.0 228.0 426.0 238.0 " fill="none" stroke="#000080" stroke-width="4"/>
<polyline id="R115" points="389.0 78.0 330.0 98.0 " fill="none" stroke="#000080" stroke-width="4"/>
<polyline id="R116" points="489.0 138.0 479.0 88.0 " fill="none" stroke="#000080" stroke-width="4"/>
<polyline id="R117" points="389.0 78.0 319.0 18.0 " fill="none" stroke="#000080" stroke-width="4"/>
<polyline id="R118" points="430.0 208.0 380.0 228.0 " fill="none" stroke="#000080" stroke-width="4"/>
<polyline id="R119" points="386.0 366.0 291.0 296.0 " fill="none" stroke="#000080" stroke-width="4"/>
<polyline id="R120" points="389.0 78.0 320.0 98.0 " fill="none" stroke="#000080" stroke-width="4"/>
<polyline id="R121" points="479.0 88.0 479.0 168.0 " fill="none" stroke="#000080" stroke-width="4"/>
<polyline id="R122" points="389.0 78.0 390.0 188.0 " fill="none" stroke="#000080" stroke-width="4"/>
<polyline id="R123" points="370.0 118.0 360.0 158.0 " fill="none" stroke="#000080" stroke-width="4"/>
<polyline id="R124" points="352.0 287.0 445.0 305.0 " fill="none" stroke="#000080" stroke-width="4"/>
<polyline id="R125" points="389.0 78.0 365.0 80.0 " fill="none" stroke="#000080" stroke-width="4"/>
<polyline id="R126" points="300.0 158.0 0.0 331.23 " fill="none" stroke="#000080" stroke-width="4"/>
<polyline id="R127" points="479.0 88.0 459.0 178.0 " fill="none" stroke="#000080" stroke-width="4"/>
<polyline id="R128" points="451.0 350.0 0.0 610.43 " fill="none" stroke="#000080" stroke-width="4"/>
<polyline id="R129" points="599.0 68.0 293.0 53.0 " fill="none" stroke="#000080" stroke-width="4"/>
<polyline id="R130" points="280.0 118.0 352.0 287.0 " fill="none" stroke="#000080" stroke-width="4"/>
<polyline id="R131" points="389.0 78.0 499.0 298.0 " fill="none" stroke="#000080" stroke-width="4"/>
<polyline id="R132" points="380.0 228.0 445.0 305.0 " fill="none" stroke="#000080" stroke-width="4"/>
<polyline id="R133" points="300.0 158.0 238.0 73.0 " fill="none" stroke="#000080" stroke-width="4"/>
<polyline id="R134" points="539.0 98.0 489.0 138.0 " fill="none" stroke="#000080" stroke-width="4"/>
<polyline id="R135" points="599.0 118.0 509.0 248.0 " fill="none" stroke="#000080" stroke-width="4"/>
<polyline id="R136" points="390.0 288.0 360.0 248.0 " fill="none" stroke="#000080" stroke-width="4"/>
<polyline id="R137" points="360.0 248.0 238.0 73.0 " fill="none" stroke="#000080" stroke-width="4"/>
<polyline id="R138" points="599.0 68.0 319.0 18.0 " fill="none" stroke="#000080" stroke-width="4"/>
<polyline id="R139" points="380.0 228.0 390.0 288.0 " fill="none" stroke="#000080" stroke-width="4"/>
<polyline id="R140" points="599.0 258.0 685.0 183.0 " fill="none" stroke="#000080" stroke-width="4"/>
<polyline id="R141" points="386.0 366.0 761.0 346.0 " fill="none" stroke="#000080" stroke-width="4"/>
<polyline id="R142" points="280.0 118.0 291.0 296.0 " fill="none" stroke="#000080" stroke-width="4"/>
<polyline id="R143" points="380.0 228.0 462.0 302.0 " fill="none" stroke="#000080" stroke-width="4"/>
<polyline id="R144" points="509.0 248.0 637.0 248.0 " fill="none" stroke="#000080" stroke-width="4"/>
<polyline id="R145" points="613.0 348.0 0.0 701.97 " fill="none" stroke="#000080" stroke-width="4"/>
<polyline id="R146" points="320.0 98.0 238.0 73.0 " fill="none" stroke="#000080" stroke-width="4"/>
<polyline id="R147" points="330.0 198.0 291.0 296.0 " fill="none" stroke="#000080" stroke-width="4"/>
<polyline id="R148" points="489.0 138.0 519.0 238.0 " fill="none" stroke="#000080" stroke-width="4"/>
<polyline id="R149" points="599.0 258.0 499.0 298.0 " fill="none" stroke="#000080" stroke-width="4"/>
<polyline id="R150" points="330.0 98.0 238.0 73.0 " fill="none" stroke="#000080" stroke-width="4"/>
<polyline id="R151" points="519.0 238.0 459.0 178.0 " fill="none" stroke="#000080" stroke-width="4"/>
<polyline id="R152" points="340.0 208.0 291.0 296.0 " fill="none" stroke="#000080" stroke-width="4"/>
<polyline id="R153" points="599.0 68.0 479.0 88.0 " fill="none" stroke="#000080" stroke-width="4"/>
<polyline id="R154" points="499.0 298.0 516.0 330.0 " fill="none" stroke="#000080" stroke-width="4"/>
<polyline id="R155" points="559.0 178.0 509.0 248.0 " fill="none" stroke="#000080" stroke-width="4"/>
<polyline id="R156" points="365.0 80.0 238.0 73.0 " fill="none" stroke="#000080" stroke-width="4"/>
<polyline id="R157" points="360.0 248.0 291.0 296.0 " fill="none" stroke="#000080" stroke-width="4"/>
<polyline id="R158" points="609.0 248.0 509.0 248.0 " fill="none" stroke="#000080" stroke-width="4"/>
<polyline id="R159" points="459.0 68.0 599.0 68.0 " fill="none" stroke="#000080" stroke-width="4"/>
<polyline id="R160" points="519.0 238.0 479.0 168.0 " fill="none" stroke="#000080" stroke-width="4"/>
<polyline id="R161" points="499.0 298.0 426.0 238.0 " fill="none" stroke="#000080" stroke-width="4"/>
<polyline id="R162" points="569.0 158.0 509.0 248.0 " fill="none" stroke="#000080" stroke-width="4"/>
<polyline id="R163" points="519.0 198.0 489.0 138.0 " fill="none" stroke="#000080" stroke-width="4"/>
<polyline id="R164" points="426.0 238.0 462.0 302.0 " fill="none" stroke="#000080" stroke-width="4"/>
<polyline id="R165" points="451.0 350.0 613.0 348.0 " fill="none" stroke="#000080" stroke-width="4"/>
<polyline id="R166" points="499.0 298.0 430.0 208.0 " fill="none" stroke="#000080" stroke-width="4"/>
<polyline id="R167" points="238.0 73.0 257.0 15.0 " fill="none" stroke="#000080" stroke-width="4"/>
<polyline id="R168" points="257.0 15.0 0.0 163.4 " fill="none" stroke="#000080" stroke-width="4"/>
<polyline id="R169" points="519.0 198.0 479.0 168.0 " fill="none" stroke="#000080" stroke-width="4"/>
<polyline id="R170" points="761.0 346.0 754.0 231.0 " fill="none" stroke="#000080" stroke-width="4"/>
<polyline id="R171" points="519.0 198.0 459.0 178.0 " fill="none" stroke="#000080" stroke-width="4"/>
<polyline id="R172" points="300.0 158.0 291.0 296.0 " fill="none" stroke="#000080" stroke-width="4"/>
<polyline id="R173" points="519.0 238.0 599.0 258.0 " fill="none" stroke="#000080" stroke-width="4"/>
<polyline id="R174" points="549.0 98.0 479.0 88.0 " fill="none" stroke="#000080" stroke-width="4"/>
<polyline id="R175" points="519.0 198.0 509.0 248.0 " fill="none" stroke="#000080" stroke-width="4"/>
<polyline id="R176" points="445.0 305.0 426.0 238.0 " fill="none" stroke="#000080" stroke-width="4"/>
<polyline id="R177" points="280.0 118.0 238.0 73.0 " fill="none" stroke="#000080" stroke-width="4"/>
<polyline id="R178" points="637.0 248.0 516.0 330.0 " fill="none" stroke="#000080" stroke-width="4"/>
<polyline id="R179" points="609.0 248.0 599.0 258.0 " fill="none" stroke="#000080" stroke-width="4"/>
<polyline id="R180" points="300.0 158.0 352.0 287.0 " fill="none" stroke="#000080" stroke-width="4"/>
<polyline id="R181" points="599.0 258.0 637.0 248.0 " fill="none" stroke="#000080" stroke-width="4"/>
<polyline id="R182" points="386.0 366.0 613.0 348.0 " fill="none" stroke="#000080" stroke-width="4"/>
<polyline id="R183" points="430.0 208.0 390.0 288.0 " fill="none" stroke="#000080" stroke-width="4"/>
<polyline id="R184" points="291.0 296.0 0.0 464.04 " fill="none" stroke="#000080" stroke-width="4"/>
<polyline id="R185" points="499.0 298.0 370.0 118.0 " fill="none" stroke="#000080" stroke-width="4"/>
<polyline id="R186" points="390.0 288.0 426.0 238.0 " fill="none" stroke="#000080" stroke-width="4"/>
<polyline id="R187" points="499.0 298.0 365.0 80.0 " fill="none" stroke="#000080" stroke-width="4"/>
<polyline id="R188" points="519.0 238.0 509.0 248.0 " fill="none" stroke="#000080" stroke-width="4"/>
<polyline id="R189" points="360.0 248.0 352.0 287.0 " fill="none" stroke="#000080" stroke-width="4"/>
<polyline id="R190" points="330.0 198.0 352.0 287.0 " fill="none" stroke="#000080" stroke-width="4"/>
<polyline id="R191" points="340.0 208.0 352.0 287.0 " fill="none" stroke="#000080" stroke-width="4"/>
<polyline id="R192" points="360.0 158.0 291.0 296.0 " fill="none" stroke="#000080" stroke-width="4"/>
<polyline id="R193" points="539.0 98.0 479.0 88.0 " fill="none" stroke="#000080" stroke-width="4"/>
</g>
    </g>
    </svg>