 <svg version="1.1" viewBox="0 0 1220 980 " xmlns="http://www.w3.org/2000/svg">
    <g transform="scale(1 -1)">
    <g transform="translate(0 -980)">
	    <line id="y" x1="0" x2="0" y1="0" y2=" 980" fill="none" stroke="#212121" stroke-width="3"/> 
<polygon id="P1" points="121.0 39.0 290.0 27.0 284.0 86.0 156.0 110.0 121.0 88.0 " fill="#6B6B6B" stroke="#212121" stroke-width="2"/>
<polygon id="P2" points="133.0 206.0 202.0 144.0 254.0 170.0 278.0 224.0 201.0 194.0 156.0 258.0 " fill="#6B6B6B" stroke="#212121" stroke-width="2"/>
<polygon id="P3" points="160.0 290.0 247.0 301.0 162.0 398.0 365.0 280.0 276.0 253.0 208.0 233.0 " fill="#6B6B6B" stroke="#212121" stroke-width="2"/>
<polygon id="P4" points="170.0 421.0 386.0 298.0 384.0 472.0 " fill="#6B6B6B" stroke="#212121" stroke-width="2"/>
<polygon id="P5" points="408.0 297.0 428.0 297.0 565.0 199.0 413.0 475.0 " fill="#6B6B6B" stroke="#212121" stroke-width="2"/>
<polygon id="P6" points="300.0 120.0 440.0 160.0 382.0 227.0 320.0 201.0 " fill="#6B6B6B" stroke="#212121" stroke-width="2"/>
<polygon id="P7" points="323.0 34.0 440.0 20.0 308.0 85.0 " fill="#6B6B6B" stroke="#212121" stroke-width="2"/>
<polygon id="P8" points="500.0 20.0 500.0 140.0 376.0 103.0 " fill="#6B6B6B" stroke="#212121" stroke-width="2"/>
<polygon id="P9" points="540.0 20.0 600.0 40.0 600.0 100.0 740.0 100.0 700.0 340.0 660.0 340.0 660.0 140.0 540.0 140.0 " fill="#6B6B6B" stroke="#212121" stroke-width="2"/>
<polygon id="P10" points="580.0 240.0 633.0 402.0 896.0 475.0 508.0 466.0 " fill="#6B6B6B" stroke="#212121" stroke-width="2"/>
<polygon id="P11" points="780.0 140.0 1020.0 140.0 1020.0 480.0 960.0 480.0 960.0 200.0 800.0 200.0 773.0 301.0 900.0 300.0 900.0 340.0 740.0 340.0 " fill="#6B6B6B" stroke="#212121" stroke-width="2"/>
 <circle id="L" cx="856.0" cy="270.0" r="10" fill="#F42121" stroke="#000080" stroke-width="1"/>
 <polyline id="R1" points="323.0 34.0 308.0 85.0 " fill="none" stroke="#000080" stroke-width="4"/>
<polyline id="R2" points="428.0 297.0 500.0 140.0 " fill="none" stroke="#000080" stroke-width="4"/>
<polyline id="R3" points="700.0 340.0 633.0 402.0 " fill="none" stroke="#000080" stroke-width="4"/>
<polyline id="R4" points="440.0 160.0 376.0 103.0 " fill="none" stroke="#000080" stroke-width="4"/>
<polyline id="R5" points="202.0 144.0 254.0 170.0 " fill="none" stroke="#000080" stroke-width="4"/>
<polyline id="R6" points="508.0 466.0 960.0 480.0 " fill="none" stroke="#000080" stroke-width="4"/>
<polyline id="R7" points="133.0 206.0 202.0 144.0 " fill="none" stroke="#000080" stroke-width="4"/>
<polyline id="R8" points="382.0 227.0 320.0 201.0 " fill="none" stroke="#000080" stroke-width="4"/>
<polyline id="R9" points="428.0 297.0 540.0 140.0 " fill="none" stroke="#000080" stroke-width="4"/>
<polyline id="R10" points="386.0 298.0 408.0 297.0 " fill="none" stroke="#000080" stroke-width="4"/>
<polyline id="R11" points="308.0 85.0 500.0 140.0 " fill="none" stroke="#000080" stroke-width="4"/>
<polyline id="R12" points="156.0 258.0 160.0 290.0 " fill="none" stroke="#000080" stroke-width="4"/>
<polyline id="R13" points="413.0 475.0 896.0 475.0 " fill="none" stroke="#000080" stroke-width="4"/>
<polyline id="R14" points="284.0 86.0 300.0 120.0 " fill="none" stroke="#000080" stroke-width="4"/>
<polyline id="R15" points="278.0 224.0 276.0 253.0 " fill="none" stroke="#000080" stroke-width="4"/>
<polyline id="R16" points="384.0 472.0 413.0 475.0 " fill="none" stroke="#000080" stroke-width="4"/>
<polyline id="R17" points="254.0 170.0 365.0 280.0 " fill="none" stroke="#000080" stroke-width="4"/>
<polyline id="R18" points="408.0 297.0 540.0 140.0 " fill="none" stroke="#000080" stroke-width="4"/>
<polyline id="R19" points="162.0 398.0 170.0 421.0 " fill="none" stroke="#000080" stroke-width="4"/>
<polyline id="R20" points="700.0 340.0 660.0 340.0 " fill="none" stroke="#000080" stroke-width="4"/>
<polyline id="R21" points="960.0 480.0 0.0 1034.34 " fill="none" stroke="#000080" stroke-width="4"/>
<polyline id="R22" points="284.0 86.0 323.0 34.0 " fill="none" stroke="#000080" stroke-width="4"/>
<polyline id="R23" points="284.0 86.0 308.0 85.0 " fill="none" stroke="#000080" stroke-width="4"/>
<polyline id="R24" points="300.0 120.0 500.0 140.0 " fill="none" stroke="#000080" stroke-width="4"/>
<polyline id="R25" points="660.0 340.0 633.0 402.0 " fill="none" stroke="#000080" stroke-width="4"/>
<polyline id="R26" points="780.0 140.0 740.0 340.0 " fill="none" stroke="#000080" stroke-width="4"/>
<polyline id="R27" points="1020.0 480.0 0.0 1068.99 " fill="none" stroke="#000080" stroke-width="4"/>
<polyline id="R28" points="121.0 39.0 0.0 108.87 " fill="none" stroke="#000080" stroke-width="4"/>
<polyline id="R29" points="284.0 86.0 500.0 140.0 " fill="none" stroke="#000080" stroke-width="4"/>
<polyline id="R30" points="201.0 194.0 208.0 233.0 " fill="none" stroke="#000080" stroke-width="4"/>
<polyline id="R31" points="408.0 297.0 428.0 297.0 " fill="none" stroke="#000080" stroke-width="4"/>
<polyline id="R32" points="300.0 120.0 308.0 85.0 " fill="none" stroke="#000080" stroke-width="4"/>
<polyline id="R33" points="386.0 298.0 540.0 140.0 " fill="none" stroke="#000080" stroke-width="4"/>
<polyline id="R34" points="156.0 110.0 0.0 200.08 " fill="none" stroke="#000080" stroke-width="4"/>
<polyline id="R35" points="1020.0 480.0 960.0 480.0 " fill="none" stroke="#000080" stroke-width="4"/>
<polyline id="R36" points="408.0 297.0 565.0 199.0 " fill="none" stroke="#000080" stroke-width="4"/>
<polyline id="R37" points="565.0 199.0 580.0 240.0 " fill="none" stroke="#000080" stroke-width="4"/>
<polyline id="R38" points="300.0 120.0 376.0 103.0 " fill="none" stroke="#000080" stroke-width="4"/>
<polyline id="R39" points="300.0 120.0 440.0 160.0 " fill="none" stroke="#000080" stroke-width="4"/>
<polyline id="R40" points="440.0 20.0 500.0 20.0 " fill="none" stroke="#000080" stroke-width="4"/>
<polyline id="R41" points="600.0 40.0 600.0 100.0 " fill="none" stroke="#000080" stroke-width="4"/>
<polyline id="R42" points="284.0 86.0 440.0 160.0 " fill="none" stroke="#000080" stroke-width="4"/>
<polyline id="R43" points="284.0 86.0 376.0 103.0 " fill="none" stroke="#000080" stroke-width="4"/>
<polyline id="R44" points="290.0 27.0 323.0 34.0 " fill="none" stroke="#000080" stroke-width="4"/>
<polyline id="R45" points="290.0 27.0 308.0 85.0 " fill="none" stroke="#000080" stroke-width="4"/>
<polyline id="R46" points="160.0 290.0 247.0 301.0 " fill="none" stroke="#000080" stroke-width="4"/>
<polyline id="R47" points="386.0 298.0 565.0 199.0 " fill="none" stroke="#000080" stroke-width="4"/>
<polyline id="R48" points="700.0 340.0 740.0 340.0 " fill="none" stroke="#000080" stroke-width="4"/>
<polyline id="R49" points="633.0 402.0 740.0 340.0 " fill="none" stroke="#000080" stroke-width="4"/>
<polyline id="R50" points="276.0 253.0 320.0 201.0 " fill="none" stroke="#000080" stroke-width="4"/>
<polyline id="R51" points="247.0 301.0 0.0 443.63 " fill="none" stroke="#000080" stroke-width="4"/>
<polyline id="R52" points="565.0 199.0 540.0 140.0 " fill="none" stroke="#000080" stroke-width="4"/>
<polyline id="R53" points="440.0 160.0 500.0 140.0 " fill="none" stroke="#000080" stroke-width="4"/>
<polyline id="R54" points="413.0 475.0 960.0 480.0 " fill="none" stroke="#000080" stroke-width="4"/>
<polyline id="R55" points="500.0 140.0 376.0 103.0 " fill="none" stroke="#000080" stroke-width="4"/>
<polyline id="R56" points="413.0 475.0 508.0 466.0 " fill="none" stroke="#000080" stroke-width="4"/>
<polyline id="R57" points="700.0 340.0 780.0 140.0 " fill="none" stroke="#000080" stroke-width="4"/>
<polyline id="R58" points="121.0 88.0 133.0 206.0 " fill="none" stroke="#000080" stroke-width="4"/>
<polyline id="R59" points="278.0 224.0 382.0 227.0 " fill="none" stroke="#000080" stroke-width="4"/>
<polyline id="R60" points="290.0 27.0 300.0 120.0 " fill="none" stroke="#000080" stroke-width="4"/>
<polyline id="R61" points="365.0 280.0 660.0 140.0 " fill="none" stroke="#000080" stroke-width="4"/>
<polyline id="R62" points="660.0 340.0 740.0 340.0 " fill="none" stroke="#000080" stroke-width="4"/>
<polyline id="R63" points="290.0 27.0 284.0 86.0 " fill="none" stroke="#000080" stroke-width="4"/>
<polyline id="R64" points="276.0 253.0 382.0 227.0 " fill="none" stroke="#000080" stroke-width="4"/>
<polyline id="R65" points="896.0 475.0 508.0 466.0 " fill="none" stroke="#000080" stroke-width="4"/>
<polyline id="R66" points="428.0 297.0 565.0 199.0 " fill="none" stroke="#000080" stroke-width="4"/>
<polyline id="R67" points="540.0 20.0 600.0 40.0 " fill="none" stroke="#000080" stroke-width="4"/>
<polyline id="R68" points="440.0 160.0 308.0 85.0 " fill="none" stroke="#000080" stroke-width="4"/>
<polyline id="R69" points="900.0 300.0 900.0 340.0 " fill="none" stroke="#000080" stroke-width="4"/>
<polyline id="R70" points="121.0 88.0 202.0 144.0 " fill="none" stroke="#000080" stroke-width="4"/>
<polyline id="R71" points="896.0 475.0 960.0 480.0 " fill="none" stroke="#000080" stroke-width="4"/>
<polyline id="R72" points="201.0 194.0 365.0 280.0 " fill="none" stroke="#000080" stroke-width="4"/>
<polyline id="R73" points="278.0 224.0 320.0 201.0 " fill="none" stroke="#000080" stroke-width="4"/>
<polyline id="R74" points="121.0 39.0 121.0 88.0 " fill="none" stroke="#000080" stroke-width="4"/>
<polyline id="R75" points="308.0 85.0 376.0 103.0 " fill="none" stroke="#000080" stroke-width="4"/>
<polyline id="R76" points="308.0 85.0 500.0 20.0 " fill="none" stroke="#000080" stroke-width="4"/>
<polyline id="R77" points="773.0 301.0 856.0 270.0 " fill="none" stroke="#000080" stroke-width="4"/>
<polyline id="R78" points="773.0 301.0 900.0 300.0 " fill="none" stroke="#000080" stroke-width="4"/>
<polyline id="R79" points="440.0 160.0 382.0 227.0 " fill="none" stroke="#000080" stroke-width="4"/>
<polyline id="R80" points="365.0 280.0 565.0 199.0 " fill="none" stroke="#000080" stroke-width="4"/>
<polyline id="R81" points="660.0 140.0 540.0 140.0 " fill="none" stroke="#000080" stroke-width="4"/>
<polyline id="R82" points="960.0 480.0 900.0 300.0 " fill="none" stroke="#000080" stroke-width="4"/>
<polyline id="R83" points="896.0 475.0 900.0 340.0 " fill="none" stroke="#000080" stroke-width="4"/>
<polyline id="R84" points="201.0 194.0 428.0 297.0 " fill="none" stroke="#000080" stroke-width="4"/>
<polyline id="R85" points="413.0 475.0 0.0 713.48 " fill="none" stroke="#000080" stroke-width="4"/>
<polyline id="R86" points="290.0 27.0 440.0 20.0 " fill="none" stroke="#000080" stroke-width="4"/>
<polyline id="R87" points="500.0 20.0 500.0 140.0 " fill="none" stroke="#000080" stroke-width="4"/>
<polyline id="R88" points="540.0 20.0 540.0 140.0 " fill="none" stroke="#000080" stroke-width="4"/>
<polyline id="R89" points="580.0 240.0 508.0 466.0 " fill="none" stroke="#000080" stroke-width="4"/>
<polyline id="R90" points="278.0 224.0 300.0 120.0 " fill="none" stroke="#000080" stroke-width="4"/>
<polyline id="R91" points="156.0 110.0 254.0 170.0 " fill="none" stroke="#000080" stroke-width="4"/>
<polyline id="R92" points="156.0 110.0 202.0 144.0 " fill="none" stroke="#000080" stroke-width="4"/>
<polyline id="R93" points="660.0 140.0 580.0 240.0 " fill="none" stroke="#000080" stroke-width="4"/>
<polyline id="R94" points="160.0 290.0 162.0 398.0 " fill="none" stroke="#000080" stroke-width="4"/>
<polyline id="R95" points="386.0 298.0 660.0 140.0 " fill="none" stroke="#000080" stroke-width="4"/>
<polyline id="R96" points="156.0 258.0 162.0 398.0 " fill="none" stroke="#000080" stroke-width="4"/>
<polyline id="R97" points="440.0 20.0 376.0 103.0 " fill="none" stroke="#000080" stroke-width="4"/>
<polyline id="R98" points="565.0 199.0 413.0 475.0 " fill="none" stroke="#000080" stroke-width="4"/>
<polyline id="R99" points="300.0 120.0 500.0 20.0 " fill="none" stroke="#000080" stroke-width="4"/>
<polyline id="R100" points="156.0 110.0 133.0 206.0 " fill="none" stroke="#000080" stroke-width="4"/>
<polyline id="R101" points="201.0 194.0 408.0 297.0 " fill="none" stroke="#000080" stroke-width="4"/>
<polyline id="R102" points="284.0 86.0 278.0 224.0 " fill="none" stroke="#000080" stroke-width="4"/>
<polyline id="R103" points="121.0 88.0 0.0 157.87 " fill="none" stroke="#000080" stroke-width="4"/>
<polyline id="R104" points="276.0 253.0 300.0 120.0 " fill="none" stroke="#000080" stroke-width="4"/>
<polyline id="R105" points="208.0 233.0 428.0 297.0 " fill="none" stroke="#000080" stroke-width="4"/>
<polyline id="R106" points="600.0 100.0 740.0 100.0 " fill="none" stroke="#000080" stroke-width="4"/>
<polyline id="R107" points="156.0 258.0 0.0 348.08 " fill="none" stroke="#000080" stroke-width="4"/>
<polyline id="R108" points="284.0 86.0 320.0 201.0 " fill="none" stroke="#000080" stroke-width="4"/>
<polyline id="R109" points="365.0 280.0 408.0 297.0 " fill="none" stroke="#000080" stroke-width="4"/>
<polyline id="R110" points="162.0 398.0 0.0 491.55 " fill="none" stroke="#000080" stroke-width="4"/>
<polyline id="R111" points="323.0 34.0 440.0 20.0 " fill="none" stroke="#000080" stroke-width="4"/>
<polyline id="R112" points="440.0 20.0 308.0 85.0 " fill="none" stroke="#000080" stroke-width="4"/>
<polyline id="R113" points="290.0 27.0 278.0 224.0 " fill="none" stroke="#000080" stroke-width="4"/>
<polyline id="R114" points="254.0 170.0 428.0 297.0 " fill="none" stroke="#000080" stroke-width="4"/>
<polyline id="R115" points="156.0 110.0 121.0 88.0 " fill="none" stroke="#000080" stroke-width="4"/>
<polyline id="R116" points="508.0 466.0 0.0 759.34 " fill="none" stroke="#000080" stroke-width="4"/>
<polyline id="R117" points="565.0 199.0 508.0 466.0 " fill="none" stroke="#000080" stroke-width="4"/>
<polyline id="R118" points="365.0 280.0 386.0 298.0 " fill="none" stroke="#000080" stroke-width="4"/>
<polyline id="R119" points="300.0 120.0 320.0 201.0 " fill="none" stroke="#000080" stroke-width="4"/>
<polyline id="R120" points="960.0 200.0 800.0 200.0 " fill="none" stroke="#000080" stroke-width="4"/>
<polyline id="R121" points="254.0 170.0 408.0 297.0 " fill="none" stroke="#000080" stroke-width="4"/>
<polyline id="R122" points="365.0 280.0 540.0 140.0 " fill="none" stroke="#000080" stroke-width="4"/>
<polyline id="R123" points="382.0 227.0 500.0 140.0 " fill="none" stroke="#000080" stroke-width="4"/>
<polyline id="R124" points="384.0 472.0 408.0 297.0 " fill="none" stroke="#000080" stroke-width="4"/>
<polyline id="R125" points="565.0 199.0 660.0 140.0 " fill="none" stroke="#000080" stroke-width="4"/>
<polyline id="R126" points="384.0 472.0 0.0 693.74 " fill="none" stroke="#000080" stroke-width="4"/>
<polyline id="R127" points="386.0 298.0 413.0 475.0 " fill="none" stroke="#000080" stroke-width="4"/>
<polyline id="R128" points="365.0 280.0 428.0 297.0 " fill="none" stroke="#000080" stroke-width="4"/>
<polyline id="R129" points="386.0 298.0 384.0 472.0 " fill="none" stroke="#000080" stroke-width="4"/>
<polyline id="R130" points="413.0 475.0 580.0 240.0 " fill="none" stroke="#000080" stroke-width="4"/>
<polyline id="R131" points="600.0 40.0 740.0 100.0 " fill="none" stroke="#000080" stroke-width="4"/>
<polyline id="R132" points="780.0 140.0 1020.0 140.0 " fill="none" stroke="#000080" stroke-width="4"/>
<polyline id="R133" points="960.0 480.0 900.0 340.0 " fill="none" stroke="#000080" stroke-width="4"/>
<polyline id="R134" points="247.0 301.0 162.0 398.0 " fill="none" stroke="#000080" stroke-width="4"/>
<polyline id="R135" points="408.0 297.0 413.0 475.0 " fill="none" stroke="#000080" stroke-width="4"/>
<polyline id="R136" points="300.0 120.0 440.0 20.0 " fill="none" stroke="#000080" stroke-width="4"/>
<polyline id="R137" points="254.0 170.0 386.0 298.0 " fill="none" stroke="#000080" stroke-width="4"/>
<polyline id="R138" points="160.0 290.0 0.0 382.39 " fill="none" stroke="#000080" stroke-width="4"/>
<polyline id="R139" points="900.0 300.0 856.0 270.0 " fill="none" stroke="#000080" stroke-width="4"/>
<polyline id="R140" points="500.0 20.0 376.0 103.0 " fill="none" stroke="#000080" stroke-width="4"/>
<polyline id="R141" points="254.0 170.0 300.0 120.0 " fill="none" stroke="#000080" stroke-width="4"/>
<polyline id="R142" points="440.0 160.0 660.0 140.0 " fill="none" stroke="#000080" stroke-width="4"/>
<polyline id="R143" points="600.0 40.0 1020.0 140.0 " fill="none" stroke="#000080" stroke-width="4"/>
<polyline id="R144" points="740.0 100.0 780.0 140.0 " fill="none" stroke="#000080" stroke-width="4"/>
<polyline id="R145" points="170.0 421.0 0.0 519.17 " fill="none" stroke="#000080" stroke-width="4"/>
<polyline id="R146" points="428.0 297.0 320.0 201.0 " fill="none" stroke="#000080" stroke-width="4"/>
<polyline id="R147" points="365.0 280.0 500.0 140.0 " fill="none" stroke="#000080" stroke-width="4"/>
<polyline id="R148" points="202.0 144.0 300.0 120.0 " fill="none" stroke="#000080" stroke-width="4"/>
<polyline id="R149" points="382.0 227.0 540.0 140.0 " fill="none" stroke="#000080" stroke-width="4"/>
<polyline id="R150" points="284.0 86.0 202.0 144.0 " fill="none" stroke="#000080" stroke-width="4"/>
<polyline id="R151" points="660.0 340.0 900.0 340.0 " fill="none" stroke="#000080" stroke-width="4"/>
<polyline id="R152" points="170.0 421.0 660.0 140.0 " fill="none" stroke="#000080" stroke-width="4"/>
<polyline id="R153" points="428.0 297.0 382.0 227.0 " fill="none" stroke="#000080" stroke-width="4"/>
<polyline id="R154" points="276.0 253.0 565.0 199.0 " fill="none" stroke="#000080" stroke-width="4"/>
<polyline id="R155" points="284.0 86.0 254.0 170.0 " fill="none" stroke="#000080" stroke-width="4"/>
<polyline id="R156" points="960.0 200.0 773.0 301.0 " fill="none" stroke="#000080" stroke-width="4"/>
<polyline id="R157" points="386.0 298.0 320.0 201.0 " fill="none" stroke="#000080" stroke-width="4"/>
<polyline id="R158" points="960.0 480.0 960.0 200.0 " fill="none" stroke="#000080" stroke-width="4"/>
<polyline id="R159" points="408.0 297.0 382.0 227.0 " fill="none" stroke="#000080" stroke-width="4"/>
<polyline id="R160" points="740.0 100.0 740.0 340.0 " fill="none" stroke="#000080" stroke-width="4"/>
<polyline id="R161" points="565.0 199.0 660.0 340.0 " fill="none" stroke="#000080" stroke-width="4"/>
<polyline id="R162" points="162.0 398.0 660.0 140.0 " fill="none" stroke="#000080" stroke-width="4"/>
<polyline id="R163" points="254.0 170.0 323.0 34.0 " fill="none" stroke="#000080" stroke-width="4"/>
<polyline id="R164" points="254.0 170.0 308.0 85.0 " fill="none" stroke="#000080" stroke-width="4"/>
<polyline id="R165" points="386.0 298.0 382.0 227.0 " fill="none" stroke="#000080" stroke-width="4"/>
<polyline id="R166" points="408.0 297.0 320.0 201.0 " fill="none" stroke="#000080" stroke-width="4"/>
<polyline id="R167" points="700.0 340.0 900.0 340.0 " fill="none" stroke="#000080" stroke-width="4"/>
<polyline id="R168" points="202.0 144.0 308.0 85.0 " fill="none" stroke="#000080" stroke-width="4"/>
<polyline id="R169" points="633.0 402.0 900.0 340.0 " fill="none" stroke="#000080" stroke-width="4"/>
<polyline id="R170" points="800.0 200.0 900.0 300.0 " fill="none" stroke="#000080" stroke-width="4"/>
<polyline id="R171" points="278.0 224.0 408.0 297.0 " fill="none" stroke="#000080" stroke-width="4"/>
<polyline id="R172" points="660.0 340.0 540.0 140.0 " fill="none" stroke="#000080" stroke-width="4"/>
<polyline id="R173" points="133.0 206.0 0.0 282.8 " fill="none" stroke="#000080" stroke-width="4"/>
<polyline id="R174" points="896.0 475.0 960.0 200.0 " fill="none" stroke="#000080" stroke-width="4"/>
<polyline id="R175" points="170.0 421.0 384.0 472.0 " fill="none" stroke="#000080" stroke-width="4"/>
<polyline id="R176" points="208.0 233.0 0.0 353.11 " fill="none" stroke="#000080" stroke-width="4"/>
<polyline id="R177" points="162.0 398.0 365.0 280.0 " fill="none" stroke="#000080" stroke-width="4"/>
<polyline id="R178" points="202.0 144.0 0.0 260.64 " fill="none" stroke="#000080" stroke-width="4"/>
<polyline id="R179" points="580.0 240.0 633.0 402.0 " fill="none" stroke="#000080" stroke-width="4"/>
<polyline id="R180" points="500.0 140.0 660.0 140.0 " fill="none" stroke="#000080" stroke-width="4"/>
<polyline id="R181" points="960.0 200.0 856.0 270.0 " fill="none" stroke="#000080" stroke-width="4"/>
<polyline id="R182" points="900.0 340.0 740.0 340.0 " fill="none" stroke="#000080" stroke-width="4"/>
<polyline id="R183" points="121.0 39.0 290.0 27.0 " fill="none" stroke="#000080" stroke-width="4"/>
<polyline id="R184" points="133.0 206.0 162.0 398.0 " fill="none" stroke="#000080" stroke-width="4"/>
<polyline id="R185" points="740.0 100.0 700.0 340.0 " fill="none" stroke="#000080" stroke-width="4"/>
<polyline id="R186" points="276.0 253.0 428.0 297.0 " fill="none" stroke="#000080" stroke-width="4"/>
<polyline id="R187" points="365.0 280.0 440.0 160.0 " fill="none" stroke="#000080" stroke-width="4"/>
<polyline id="R188" points="1020.0 140.0 1020.0 480.0 " fill="none" stroke="#000080" stroke-width="4"/>
<polyline id="R189" points="565.0 199.0 382.0 227.0 " fill="none" stroke="#000080" stroke-width="4"/>
<polyline id="R190" points="500.0 20.0 540.0 140.0 " fill="none" stroke="#000080" stroke-width="4"/>
<polyline id="R191" points="500.0 140.0 540.0 20.0 " fill="none" stroke="#000080" stroke-width="4"/>
<polyline id="R192" points="278.0 224.0 428.0 297.0 " fill="none" stroke="#000080" stroke-width="4"/>
<polyline id="R193" points="660.0 340.0 580.0 240.0 " fill="none" stroke="#000080" stroke-width="4"/>
<polyline id="R194" points="540.0 20.0 1020.0 140.0 " fill="none" stroke="#000080" stroke-width="4"/>
<polyline id="R195" points="365.0 280.0 170.0 421.0 " fill="none" stroke="#000080" stroke-width="4"/>
<polyline id="R196" points="156.0 110.0 320.0 201.0 " fill="none" stroke="#000080" stroke-width="4"/>
<polyline id="R197" points="278.0 224.0 365.0 280.0 " fill="none" stroke="#000080" stroke-width="4"/>
<polyline id="R198" points="162.0 398.0 386.0 298.0 " fill="none" stroke="#000080" stroke-width="4"/>
<polyline id="R199" points="382.0 227.0 660.0 140.0 " fill="none" stroke="#000080" stroke-width="4"/>
<polyline id="R200" points="440.0 160.0 540.0 140.0 " fill="none" stroke="#000080" stroke-width="4"/>
<polyline id="R201" points="201.0 194.0 160.0 290.0 " fill="none" stroke="#000080" stroke-width="4"/>
<polyline id="R202" points="565.0 199.0 500.0 140.0 " fill="none" stroke="#000080" stroke-width="4"/>
<polyline id="R203" points="960.0 480.0 740.0 340.0 " fill="none" stroke="#000080" stroke-width="4"/>
<polyline id="R204" points="156.0 110.0 308.0 85.0 " fill="none" stroke="#000080" stroke-width="4"/>
<polyline id="R205" points="565.0 199.0 308.0 85.0 " fill="none" stroke="#000080" stroke-width="4"/>
<polyline id="R206" points="201.0 194.0 156.0 258.0 " fill="none" stroke="#000080" stroke-width="4"/>
<polyline id="R207" points="660.0 340.0 896.0 475.0 " fill="none" stroke="#000080" stroke-width="4"/>
<polyline id="R208" points="365.0 280.0 276.0 253.0 " fill="none" stroke="#000080" stroke-width="4"/>
<polyline id="R209" points="428.0 297.0 440.0 160.0 " fill="none" stroke="#000080" stroke-width="4"/>
<polyline id="R210" points="960.0 200.0 900.0 300.0 " fill="none" stroke="#000080" stroke-width="4"/>
<polyline id="R211" points="254.0 170.0 278.0 224.0 " fill="none" stroke="#000080" stroke-width="4"/>
<polyline id="R212" points="208.0 233.0 382.0 227.0 " fill="none" stroke="#000080" stroke-width="4"/>
<polyline id="R213" points="440.0 20.0 540.0 20.0 " fill="none" stroke="#000080" stroke-width="4"/>
<polyline id="R214" points="156.0 110.0 300.0 120.0 " fill="none" stroke="#000080" stroke-width="4"/>
<polyline id="R215" points="156.0 258.0 208.0 233.0 " fill="none" stroke="#000080" stroke-width="4"/>
<polyline id="R216" points="170.0 421.0 386.0 298.0 " fill="none" stroke="#000080" stroke-width="4"/>
<polyline id="R217" points="408.0 297.0 440.0 160.0 " fill="none" stroke="#000080" stroke-width="4"/>
<polyline id="R218" points="386.0 298.0 440.0 160.0 " fill="none" stroke="#000080" stroke-width="4"/>
<polyline id="R219" points="633.0 402.0 896.0 475.0 " fill="none" stroke="#000080" stroke-width="4"/>
<polyline id="R220" points="284.0 86.0 0.0 249.99 " fill="none" stroke="#000080" stroke-width="4"/>
<polyline id="R221" points="700.0 340.0 896.0 475.0 " fill="none" stroke="#000080" stroke-width="4"/>
<polyline id="R222" points="284.0 86.0 565.0 199.0 " fill="none" stroke="#000080" stroke-width="4"/>
<polyline id="R223" points="284.0 86.0 156.0 110.0 " fill="none" stroke="#000080" stroke-width="4"/>
<polyline id="R224" points="202.0 144.0 500.0 20.0 " fill="none" stroke="#000080" stroke-width="4"/>
<polyline id="R225" points="160.0 290.0 208.0 233.0 " fill="none" stroke="#000080" stroke-width="4"/>
<polyline id="R226" points="896.0 475.0 0.0 992.39 " fill="none" stroke="#000080" stroke-width="4"/>
<polyline id="R227" points="800.0 200.0 856.0 270.0 " fill="none" stroke="#000080" stroke-width="4"/>
<polyline id="R228" points="800.0 200.0 773.0 301.0 " fill="none" stroke="#000080" stroke-width="4"/>
<polyline id="R229" points="700.0 340.0 960.0 480.0 " fill="none" stroke="#000080" stroke-width="4"/>
<polyline id="R230" points="133.0 206.0 160.0 290.0 " fill="none" stroke="#000080" stroke-width="4"/>
<polyline id="R231" points="408.0 297.0 500.0 140.0 " fill="none" stroke="#000080" stroke-width="4"/>
<polyline id="R232" points="633.0 402.0 960.0 480.0 " fill="none" stroke="#000080" stroke-width="4"/>
<polyline id="R233" points="278.0 224.0 208.0 233.0 " fill="none" stroke="#000080" stroke-width="4"/>
<polyline id="R234" points="276.0 253.0 208.0 233.0 " fill="none" stroke="#000080" stroke-width="4"/>
<polyline id="R235" points="386.0 298.0 500.0 140.0 " fill="none" stroke="#000080" stroke-width="4"/>
<polyline id="R236" points="202.0 144.0 320.0 201.0 " fill="none" stroke="#000080" stroke-width="4"/>
<polyline id="R237" points="133.0 206.0 156.0 258.0 " fill="none" stroke="#000080" stroke-width="4"/>
<polyline id="R238" points="660.0 340.0 660.0 140.0 " fill="none" stroke="#000080" stroke-width="4"/>
<polyline id="R239" points="960.0 200.0 900.0 340.0 " fill="none" stroke="#000080" stroke-width="4"/>
<polyline id="R240" points="413.0 475.0 382.0 227.0 " fill="none" stroke="#000080" stroke-width="4"/>
<polyline id="R241" points="254.0 170.0 320.0 201.0 " fill="none" stroke="#000080" stroke-width="4"/>
<polyline id="R242" points="162.0 398.0 565.0 199.0 " fill="none" stroke="#000080" stroke-width="4"/>
<polyline id="R243" points="660.0 340.0 960.0 480.0 " fill="none" stroke="#000080" stroke-width="4"/>
<polyline id="R244" points="201.0 194.0 276.0 253.0 " fill="none" stroke="#000080" stroke-width="4"/>
<polyline id="R245" points="365.0 280.0 382.0 227.0 " fill="none" stroke="#000080" stroke-width="4"/>
<polyline id="R246" points="500.0 20.0 540.0 20.0 " fill="none" stroke="#000080" stroke-width="4"/>
<polyline id="R247" points="565.0 199.0 440.0 160.0 " fill="none" stroke="#000080" stroke-width="4"/>
<polyline id="R248" points="500.0 140.0 540.0 140.0 " fill="none" stroke="#000080" stroke-width="4"/>
<polyline id="R249" points="896.0 475.0 740.0 340.0 " fill="none" stroke="#000080" stroke-width="4"/>
<polyline id="R250" points="156.0 110.0 376.0 103.0 " fill="none" stroke="#000080" stroke-width="4"/>
<polyline id="R251" points="565.0 199.0 376.0 103.0 " fill="none" stroke="#000080" stroke-width="4"/>
<polyline id="R252" points="740.0 100.0 1020.0 140.0 " fill="none" stroke="#000080" stroke-width="4"/>
<polyline id="R253" points="660.0 140.0 633.0 402.0 " fill="none" stroke="#000080" stroke-width="4"/>
<polyline id="R254" points="202.0 144.0 440.0 20.0 " fill="none" stroke="#000080" stroke-width="4"/>
<polyline id="R255" points="365.0 280.0 320.0 201.0 " fill="none" stroke="#000080" stroke-width="4"/>
<polyline id="R256" points="278.0 224.0 201.0 194.0 " fill="none" stroke="#000080" stroke-width="4"/>
</g>
    </g>
    </svg>