<svg version="1.1" viewBox="0 0 820 620" xmlns="http://www.w3.org/2000/svg"> 
 <g transform="scale(1 -1)"> 
 <g transform="translate(0 -600)" fill="#ffcc99"> 
 <line id="x" x1="0" x2="820" y1="0" y2="0" stroke="#000000"/><polygon id="D1" points="11.000 206.000 46.000 171.000 111.000 171.000" />
<polygon id="D2" points="111.000 171.000 81.000 206.000 11.000 206.000" />
<polygon id="D3" points="10.000 38.000 46.000 171.000 11.000 206.000" />
<polygon id="D4" points="10.000 38.000 46.000 0.000 46.000 171.000" />
<polygon id="D5" points="46.000 171.000 111.000 171.000 111.000 106.000" />
<polygon id="D6" points="146.000 36.000 146.000 71.000 46.000 171.000" />
<polygon id="D7" points="111.000 0.000 146.000 36.000 46.000 171.000" />
<polygon id="D8" points="46.000 0.000 111.000 0.000 46.000 171.000" />
<polygon id="D9" points="177.000 196.000 211.000 0.000 217.000 59.000" />
<polygon id="D10" points="211.000 0.000 231.000 190.000 260.000 0.000" />
<polygon id="D11" points="260.000 0.000 292.000 196.000 252.000 59.000" />
<polygon id="D12" points="352.000 195.000 352.000 0.000 397.000 195.000" />
<polygon id="D13" points="397.000 195.000 397.000 0.000 352.000 0.000" />
<polygon id="D14" points="466.000 196.000 496.000 0.000 466.000 31.000" />
<polygon id="D15" points="496.000 166.000 496.000 0.000 466.000 196.000" />
<polygon id="D16" points="596.000 66.000 496.000 66.000 496.000 166.000" />
<polygon id="D17" points="650.000 196.000 685.000 0.000 650.000 36.000" />
<polygon id="D18" points="650.000 196.000 685.000 166.000 685.000 0.000" />
<polygon id="D19" points="780.000 166.000 650.000 196.000 685.000 166.000" />
<polygon id="D20" points="685.000 114.000 780.000 84.000 685.000 84.000" />
<polygon id="D21" points="561.000 196.000 561.000 101.000 596.000 66.000" />
<polygon id="D22" points="561.000 196.000 596.000 161.000 596.000 66.000" />
<polygon id="D23" points="596.000 66.000 596.000 0.000 526.000 66.000" />
</g> 
 </g> 
 </svg>