<svg version="1.1" viewBox="0 0 820 620" xmlns="http://www.w3.org/2000/svg"> 
 <g transform="scale(1 -1)"> 
 <g transform="translate(0 -600)" fill="#ffcc99"> 
 <line id="x" x1="0" x2="820" y1="0" y2="0" stroke="#000000"/>
<polygon id="D4" points="30.220 0.000 300.000 0.000 75.776 60.446" />
<polygon id="D11" points="125.405 111.206 90.222 56.551 300.000 0.000" />
<polygon id="D12" points="103.745 219.419 300.000 0.000 130.899 107.707" />
<polygon id="D6" points="300.000 0.000 232.961 189.726 172.785 142.230" />
<polygon id="D1" points="297.198 189.979 233.205 189.036 300.000 0.000" />
<polygon id="D9" points="300.000 0.000 297.713 155.099 363.073 243.717" />
<polygon id="D10" points="300.000 0.000 388.889 84.283 325.950 100.273" />
<polygon id="D8" points="392.417 0.086 350.238 47.635 300.000 0.000" />
<polygon id="D2" points="383.741 189.840 393.000 0.000 480.741 244.429" />
<polygon id="D5" points="518.371 156.867 393.000 0.000 457.193 178.828" />
<polygon id="D7" points="526.729 11.682 393.000 0.000 492.747 66.502" />
<polygon id="D3" points="393.000 0.000 526.129 88.757 505.932 141.303" />
</g> 
 </g> 
 </svg>