<svg version="1.1" viewBox="0 0 820 620" xmlns="http://www.w3.org/2000/svg"> 
 <g transform="scale(1 -1)"> 
 <g transform="translate(0 -600)" fill="#ffcc99"> 
 <line id="x" x1="0" x2="820" y1="0" y2="0" stroke="#000000"/>
<polygon id="D1" points="399.985 -35.042 365.000 -0.027 300.000 0.000" />
<polygon id="D2" points="111.000 171.000 81.000 206.000 11.000 206.000" />
<polygon id="D3" points="10.000 38.000 46.000 171.000 11.000 206.000" />
<polygon id="D4" points="10.000 38.000 46.000 0.000 46.000 171.000" />
<polygon id="D5" points="339.843 -82.840 278.501 -61.342 300.000 0.000" />
<polygon id="D6" points="378.317 148.632 346.775 133.462 300.000 0.000" />
<polygon id="D7" points="111.000 0.000 146.000 36.000 46.000 171.000" />
<polygon id="D8" points="46.000 0.000 111.000 0.000 46.000 171.000" />
<polygon id="D9" points="177.000 196.000 211.000 0.000 217.000 59.000" />
<polygon id="D10" points="291.575 190.864 300.000 0.000 243.118 183.590" />
<polygon id="D11" points="267.116 195.854 300.000 0.000 293.706 142.581" />
<polygon id="D12" points="271.115 192.849 300.000 0.000 315.619 199.515" />
<polygon id="D13" points="397.000 195.000 397.000 0.000 352.000 0.000" />
<polygon id="D14" points="300.000 0.000 330.227 195.965 349.536 157.388" />
<polygon id="D15" points="394.918 136.186 300.000 0.000 387.459 177.952" />
<polygon id="D16" points="439.219 24.861 382.040 -57.179 300.000 0.000" />
<polygon id="D17" points="300.000 0.000 486.795 68.910 457.508 28.127" />
<polygon id="D18" points="650.000 196.000 685.000 166.000 685.000 0.000" />
<polygon id="D19" points="780.000 166.000 650.000 196.000 685.000 166.000" />
<polygon id="D20" points="685.000 114.000 780.000 84.000 685.000 84.000" />
<polygon id="D21" points="561.000 196.000 561.000 101.000 596.000 66.000" />
<polygon id="D22" points="561.000 196.000 596.000 161.000 596.000 66.000" />
<polygon id="D23" points="596.000 66.000 596.000 0.000 526.000 66.000" />
</g> 
 </g> 
 </svg>