<svg version="1.1" viewBox="0 0 820 620" xmlns="http://www.w3.org/2000/svg"> 
 <g transform="scale(1 -1)"> 
 <g transform="translate(0 -600)" fill="#ffcc99"> 
 <line id="x" x1="0" x2="820" y1="0" y2="0" stroke="#000000"/>
<polygon id="D12" points="0.000 0.082 195.000 0.000 0.019 45.082" />
<polygon id="D17" points="195.000 0.000 1.017 44.852 47.876 62.886" />
<polygon id="D11" points="12.387 78.055 195.000 0.000 71.585 71.677" />
<polygon id="D14" points="195.000 0.000 23.537 99.582 66.498 103.500" />
<polygon id="D15" points="82.962 122.489 195.000 0.000 40.578 124.378" />
<polygon id="D10" points="106.011 169.059 195.000 0.000 65.279 141.822" />
<polygon id="D6" points="139.500 158.571 129.128 125.143 195.000 0.000" />
<polygon id="D16" points="148.281 133.482 238.382 90.100 195.000 0.000" />
<polygon id="D1" points="269.917 74.917 223.198 58.565 195.000 0.000" />
<polygon id="D5" points="260.000 65.000 260.000 0.000 195.000 0.000" />
<polygon id="D9" points="260.000 0.000 308.042 193.039 278.728 141.486" />
<polygon id="D4" points="327.055 120.369 301.298 165.938 260.000 0.000" />
<polygon id="D20" points="332.440 68.392 260.000 0.000 306.233 82.991" />
<polygon id="D23" points="310.899 48.055 356.208 0.064 260.000 0.000" />
<polygon id="D13" points="356.272 0.000 310.275 189.498 354.005 200.112" />
<polygon id="D18" points="354.017 199.088 383.600 163.735 356.272 0.000" />
<polygon id="D7" points="434.139 165.537 383.930 165.711 356.272 0.000" />
<polygon id="D3" points="356.272 0.000 444.833 105.555 427.783 152.024" />
<polygon id="D21" points="356.272 0.000 434.153 54.401 442.804 103.137" />
<polygon id="D2" points="462.215 1.066 422.106 23.788 356.272 0.000" />
<polygon id="D22" points="466.641 77.095 445.618 32.284 356.272 0.000" />
<polygon id="D8" points="530.943 157.044 471.248 182.764 463.280 0.000" />
<polygon id="D19" points="463.280 0.000 542.271 107.519 500.871 87.247" />
</g> 
 </g> 
 </svg>