<svg version="1.1" viewBox="0 0 820 620" xmlns="http://www.w3.org/2000/svg"> 
 <g transform="scale(1 -1)"> 
 <g transform="translate(0 -600)" fill="#ffcc99"> 
 <line id="x" x1="0" x2="820" y1="0" y2="0" stroke="#000000"/>
<polygon id="D12" points="16.668 79.899 300.000 0.000 99.511 0.187" />
<polygon id="D11" points="207.951 185.410 149.592 156.788 300.000 0.000" />
<polygon id="D9" points="300.000 0.000 166.811 79.508 125.724 181.669" />
<polygon id="D6" points="300.000 0.000 285.779 200.718 215.146 170.918" />
<polygon id="D4" points="40.347 73.222 300.000 0.000 100.599 119.034" />
<polygon id="D1" points="347.774 183.896 285.830 199.988 300.000 0.000" />
<polygon id="D10" points="300.000 0.000 388.968 84.201 326.043 100.248" />
<polygon id="D8" points="392.418 0.000 350.283 47.588 300.000 0.000" />
<polygon id="D2" points="400.296 189.926 393.000 0.000 501.679 235.866" />
<polygon id="D7" points="527.239 0.000 393.000 0.000 498.156 57.569" />
<polygon id="D5" points="531.546 145.362 393.000 0.000 472.511 172.563" />
<polygon id="D3" points="393.000 0.000 533.347 76.835 517.799 130.939" />
</g> 
 </g> 
 </svg>