<svg version="1.1" viewBox="0 0 820 620" xmlns="http://www.w3.org/2000/svg"> 
 <g transform="scale(1 -1)"> 
 <g transform="translate(0 -600)" fill="#ffcc99"> 
 <line id="x" x1="0" x2="820" y1="0" y2="0" stroke="#000000"/>
<polygon id="D1" points="300.177 190.000 236.177 190.060 300.000 0.000" />
<polygon id="D2" points="34.000 110.000 189.000 0.000 51.000 220.000" />
<polygon id="D3" points="215.000 0.000 214.000 160.000 159.000 172.000" />
<polygon id="D4" points="30.748 16.855 300.000 0.000 79.991 74.337" />
<polygon id="D5" points="270.000 0.000 335.000 190.000 335.000 0.000" />
<polygon id="D6" points="300.000 0.000 187.787 167.028 141.349 106.032" />
<polygon id="D7" points="451.000 0.000 377.000 112.000 483.000 56.000" />
<polygon id="D8" points="386.648 -32.142 363.694 27.130 300.000 0.000" />
<polygon id="D9" points="300.000 0.000 284.256 154.315 341.676 248.272" />
<polygon id="D10" points="300.000 0.000 402.613 66.899 343.582 93.961" />
<polygon id="D11" points="413.889 -172.857 468.339 -137.357 300.000 0.000" />
<polygon id="D12" points="594.382 0.000 300.000 0.000 493.014 54.236" />
</g> 
 </g> 
 </svg>