<svg version="1.1" viewBox="0 0 820 620" xmlns="http://www.w3.org/2000/svg"> 
 <g transform="scale(1 -1)"> 
 <g transform="translate(0 -600)" fill="#ffcc99"> 
 <line id="x" x1="0" x2="820" y1="0" y2="0" stroke="#000000"/>
<polygon id="D7" points="240.479 94.124 223.938 47.902 300.000 0.000" />
<polygon id="D4" points="201.538 62.010 197.044 0.044 300.000 0.000" />
<polygon id="D1" points="241.723 92.156 300.000 0.000 286.470 56.453" />
<polygon id="D12" points="300.000 0.000 331.757 69.112 278.687 88.926" />
<polygon id="D8" points="343.278 0.000 349.887 20.033 300.000 0.000" />
<polygon id="D13" points="332.613 70.975 300.000 0.000 379.719 32.013" />
<polygon id="D21" points="456.606 0.000 409.823 38.044 344.000 0.000" />
<polygon id="D34" points="344.000 0.000 520.445 101.982 435.902 82.243" />
<polygon id="D14" points="457.000 0.000 529.801 0.000 495.461 61.812" />
<polygon id="D37" points="535.627 74.740 518.860 119.504 529.801 0.000" />
<polygon id="D18" points="537.583 99.827 529.801 0.000 571.030 58.182" />
<polygon id="D17" points="529.801 0.000 586.175 44.575 584.346 76.973" />
<polygon id="D25" points="603.922 35.539 576.141 36.641 529.801 0.000" />
<polygon id="D31" points="606.860 0.000 602.499 34.857 529.801 0.000" />
<polygon id="D11" points="599.828 85.834 606.860 0.000 630.844 48.112" />
<polygon id="D15" points="659.290 36.620 641.708 69.904 606.860 0.000" />
<polygon id="D36" points="681.866 0.000 666.454 41.623 606.860 0.000" />
<polygon id="D29" points="656.015 69.833 681.866 0.000 685.332 111.946" />
<polygon id="D23" points="681.866 0.000 725.494 52.312 685.117 105.026" />
<polygon id="D26" points="681.866 0.000 744.191 74.731 763.279 0.000" />
<polygon id="D16" points="763.279 0.000 762.311 93.338 737.366 101.983" />
<polygon id="D20" points="763.279 0.000 815.291 67.259 762.255 98.711" />
<polygon id="D28" points="822.355 0.000 793.951 12.458 763.279 0.000" />
<polygon id="D5" points="847.838 34.346 803.225 51.656 763.279 0.000" />
<polygon id="D10" points="882.051 33.547 885.415 84.436 822.355 0.000" />
<polygon id="D19" points="913.596 0.000 879.401 32.058 822.355 0.000" />
<polygon id="D32" points="958.788 62.536 888.957 74.685 913.596 0.000" />
<polygon id="D33" points="983.775 0.000 952.098 53.279 913.596 0.000" />
<polygon id="D24" points="983.775 0.000 991.878 115.963 943.336 103.608" />
<polygon id="D27" points="983.775 0.000 1027.375 0.000 1019.256 25.963" />
<polygon id="D9" points="1044.306 44.293 988.667 70.008 983.775 0.000" />
<polygon id="D30" points="1071.209 19.067 1027.375 0.000 1098.439 0.000" />
<polygon id="D2" points="1027.375 0.000 1124.948 42.444 1060.691 77.214" />
<polygon id="D22" points="1180.767 0.000 1152.053 62.093 1098.439 0.000" />
<polygon id="D6" points="1165.395 57.041 1180.767 0.000 1210.311 93.531" />
<polygon id="D3" points="1207.736 85.380 1180.767 0.000 1241.817 52.630" />
<polygon id="D35" points="1247.250 0.000 1238.135 49.456 1180.767 0.000" />
</g> 
 </g> 
 </svg>