<svg version="1.1" viewBox="0 0 820 620" xmlns="http://www.w3.org/2000/svg"> 
 <g transform="scale(1 -1)"> 
 <g transform="translate(0 -600)" fill="#ffcc99"> 
 <line id="x" x1="0" x2="820" y1="0" y2="0" stroke="#000000"/>
<polygon id="D4" points="4.494 62.010 0.000 0.044 102.956 0.000" />
<polygon id="D7" points="43.435 94.124 26.895 47.902 102.956 0.000" />
<polygon id="D1" points="44.680 92.156 102.956 0.000 89.426 56.453" />
<polygon id="D12" points="102.956 0.000 134.713 69.112 81.643 88.926" />
<polygon id="D8" points="146.234 0.000 152.843 20.033 102.956 0.000" />
<polygon id="D13" points="135.569 70.975 102.956 0.000 182.676 32.013" />
<polygon id="D25" points="218.418 39.326 190.617 38.990 146.234 0.000" />
<polygon id="D15" points="210.188 0.012 214.824 37.369 146.234 0.000" />
<polygon id="D27" points="210.200 0.000 253.800 0.019 245.670 25.979" />
<polygon id="D5" points="283.831 53.930 236.344 59.837 210.200 0.000" />
<polygon id="D34" points="210.200 0.000 291.793 186.750 235.426 120.721" />
<polygon id="D21" points="350.466 57.789 290.789 66.432 253.820 0.000" />
<polygon id="D18" points="339.758 51.387 253.820 0.000 325.129 0.016" />
<polygon id="D37" points="366.358 62.622 373.306 109.916 325.145 0.000" />
<polygon id="D10" points="382.743 37.032 383.080 88.031 325.145 0.000" />
<polygon id="D6" points="374.836 31.949 325.145 0.000 423.231 0.216" />
<polygon id="D29" points="392.542 67.749 423.447 0.000 418.690 111.899" />
<polygon id="D20" points="423.447 0.000 473.272 68.895 419.254 98.628" />
<polygon id="D32" points="500.603 0.018 469.534 63.726 423.447 0.000" />
<polygon id="D16" points="500.620 0.000 487.649 92.438 461.798 97.800" />
<polygon id="D17" points="500.620 0.000 511.065 71.105 487.510 93.424" />
<polygon id="D14" points="500.620 0.000 567.366 29.069 511.201 72.028" />
<polygon id="D30" points="544.446 19.087 500.620 0.000 571.684 0.032" />
<polygon id="D24" points="571.715 0.000 605.331 111.279 555.257 109.996" />
<polygon id="D23" points="571.715 0.000 627.421 39.203 602.101 100.587" />
<polygon id="D36" points="646.722 0.268 631.161 41.836 571.715 0.000" />
<polygon id="D19" points="660.964 90.165 624.047 61.283 646.990 0.000" />
<polygon id="D11" points="660.180 85.106 646.990 0.000 681.538 41.187" />
<polygon id="D9" points="721.996 0.263 692.090 53.767 646.990 0.000" />
<polygon id="D2" points="722.259 0.000 747.741 103.309 681.109 73.339" />
<polygon id="D26" points="722.259 0.000 745.562 94.477 795.450 35.653" />
<polygon id="D31" points="799.316 0.479 794.739 35.307 722.259 0.000" />
<polygon id="D35" points="836.794 55.236 790.632 75.187 799.795 0.000" />
<polygon id="D33" points="869.929 2.496 836.378 54.614 799.795 0.000" />
<polygon id="D3" points="823.889 75.242 872.424 0.000 870.851 80.589" />
<polygon id="D22" points="933.676 55.011 870.823 82.021 872.424 0.000" />
<polygon id="D28" points="928.000 20.032 897.055 22.121 872.424 0.000" />
</g> 
 </g> 
 </svg>