<svg version="1.1" viewBox="0 0 820 620" xmlns="http://www.w3.org/2000/svg"> 
 <g transform="scale(1 -1)"> 
 <g transform="translate(0 -600)" fill="#ffcc99"> 
 <line id="x" x1="0" x2="820" y1="0" y2="0" stroke="#000000"/>
<polygon id="D15" points="187.962 122.489 300.000 0.000 145.578 124.378" />
<polygon id="D14" points="300.000 0.000 128.537 99.582 171.498 103.500" />
<polygon id="D12" points="105.000 0.082 300.000 0.000 105.019 45.082" />
<polygon id="D11" points="117.387 78.055 300.000 0.000 176.585 71.677" />
<polygon id="D10" points="211.011 169.059 300.000 0.000 170.279 141.822" />
<polygon id="D6" points="244.500 158.571 234.128 125.143 300.000 0.000" />
<polygon id="D17" points="300.000 0.000 106.017 44.852 152.876 62.886" />
<polygon id="D16" points="253.281 133.482 343.382 90.100 300.000 0.000" />
<polygon id="D5" points="365.000 65.000 365.000 0.000 300.000 0.000" />
<polygon id="D1" points="374.917 74.917 328.198 58.565 300.000 0.000" />
<polygon id="D9" points="365.000 0.000 413.170 193.007 383.822 141.473" />
<polygon id="D4" points="432.134 120.324 406.407 165.911 365.000 0.000" />
<polygon id="D20" points="437.486 68.344 365.000 0.000 411.287 82.961" />
<polygon id="D23" points="415.931 48.021 461.208 0.000 365.000 0.000" />
<polygon id="D13" points="462.000 0.000 398.272 184.293 440.801 198.999" />
<polygon id="D18" points="440.910 197.980 473.707 165.587 462.000 0.000" />
<polygon id="D7" points="523.849 172.165 473.848 167.585 462.000 0.000" />
<polygon id="D21" points="462.000 0.000 540.425 53.615 549.565 102.261" />
<polygon id="D2" points="567.948 0.000 528.070 23.125 462.000 0.000" />
<polygon id="D22" points="573.139 75.981 551.667 31.383 462.000 0.000" />
<polygon id="D8" points="573.221 129.888 523.849 172.165 462.000 0.000" />
<polygon id="D19" points="567.948 0.000 701.365 0.000 660.515 21.362" />
<polygon id="D3" points="567.948 0.000 702.206 30.983 716.561 78.352" />
</g> 
 </g> 
 </svg>