<svg version="1.1" viewBox="0 0 820 620" xmlns="http://www.w3.org/2000/svg"> 
 <g transform="scale(1 -1)"> 
 <g transform="translate(0 -600)" fill="#ffcc99"> 
 <line id="x" x1="0" x2="820" y1="0" y2="0" stroke="#000000"/>
<polygon id="D1" points="200.015 35.042 235.000 0.027 300.000 0.000" />
<polygon id="D2" points="111.000 171.000 81.000 206.000 11.000 206.000" />
<polygon id="D3" points="10.000 38.000 46.000 171.000 11.000 206.000" />
<polygon id="D4" points="10.000 38.000 46.000 0.000 46.000 171.000" />
<polygon id="D5" points="213.250 30.404 271.827 58.577 300.000 0.000" />
<polygon id="D6" points="250.279 160.477 238.703 127.447 300.000 0.000" />
<polygon id="D7" points="111.000 0.000 146.000 36.000 46.000 171.000" />
<polygon id="D8" points="46.000 0.000 111.000 0.000 46.000 171.000" />
<polygon id="D9" points="177.000 196.000 211.000 0.000 217.000 59.000" />
<polygon id="D10" points="291.575 190.864 300.000 0.000 243.118 183.590" />
<polygon id="D11" points="291.243 198.402 300.000 0.000 311.139 142.285" />
<polygon id="D12" points="315.219 194.405 300.000 0.000 360.082 190.893" />
<polygon id="D13" points="397.000 195.000 397.000 0.000 352.000 0.000" />
<polygon id="D14" points="300.000 0.000 359.529 189.136 372.779 148.082" />
<polygon id="D15" points="394.918 136.186 300.000 0.000 387.459 177.952" />
<polygon id="D16" points="380.864 116.022 398.443 17.579 300.000 0.000" />
<polygon id="D17" points="300.000 0.000 496.000 35.000 460.000 -0.000" />
<polygon id="D18" points="650.000 196.000 685.000 166.000 685.000 0.000" />
<polygon id="D19" points="780.000 166.000 650.000 196.000 685.000 166.000" />
<polygon id="D20" points="685.000 114.000 780.000 84.000 685.000 84.000" />
<polygon id="D21" points="561.000 196.000 561.000 101.000 596.000 66.000" />
<polygon id="D22" points="561.000 196.000 596.000 161.000 596.000 66.000" />
<polygon id="D23" points="596.000 66.000 596.000 0.000 526.000 66.000" />
</g> 
 </g> 
 </svg>