<svg version="1.1" viewBox="0 0 820 620" xmlns="http://www.w3.org/2000/svg"> 
 <g transform="scale(1 -1)"> 
 <g transform="translate(0 -600)" fill="#ffcc99"> 
 <line id="x" x1="0" x2="820" y1="0" y2="0" stroke="#000000"/>
<polygon id="D1" points="190.963 0.046 300.000 0.000 245.063 18.760" />
<polygon id="D2" points="0.000 160.000 39.000 61.000 76.000 124.000" />
<polygon id="D3" points="122.000 155.000 153.000 71.000 169.000 150.000" />
<polygon id="D4" points="226.822 90.471 202.568 33.272 300.000 0.000" />
<polygon id="D5" points="364.000 106.000 411.000 97.000 441.000 155.000" />
<polygon id="D6" points="605.000 172.000 654.000 139.000 615.000 229.000" />
<polygon id="D7" points="274.044 108.297 243.470 69.888 300.000 0.000" />
<polygon id="D8" points="306.323 42.814 287.470 52.278 300.000 0.000" />
<polygon id="D9" points="6.000 221.000 60.000 250.000 7.000 296.000" />
<polygon id="D10" points="374.000 217.000 398.000 172.000 407.000 277.000" />
<polygon id="D11" points="676.000 289.000 657.000 373.000 640.000 322.000" />
<polygon id="D12" points="300.000 0.000 355.224 52.300 313.360 90.463" />
<polygon id="D13" points="356.713 53.709 300.000 0.000 385.907 0.000" />
<polygon id="D14" points="100.000 0.000 170.000 20.000 120.000 70.000" />
<polygon id="D15" points="337.000 151.000 373.000 140.000 348.000 214.000" />
<polygon id="D16" points="96.000 61.000 104.000 154.000 80.000 165.000" />
<polygon id="D17" points="271.000 142.000 297.000 209.000 279.000 236.000" />
<polygon id="D18" points="48.000 307.000 33.000 406.000 6.000 340.000" />
<polygon id="D19" points="504.000 115.000 530.000 154.000 489.000 205.000" />
<polygon id="D20" points="668.000 46.000 666.000 131.000 605.000 122.000" />
<polygon id="D21" points="276.000 259.000 336.000 253.000 370.000 321.000" />
<polygon id="D22" points="224.000 295.000 158.000 313.000 171.000 232.000" />
<polygon id="D23" points="699.000 271.000 743.000 323.000 703.000 376.000" />
<polygon id="D24" points="93.000 223.000 136.000 331.000 86.000 334.000" />
<polygon id="D25" points="753.000 251.000 770.000 273.000 767.000 332.000" />
<polygon id="D26" points="298.000 114.000 335.000 24.000 260.000 42.000" />
<polygon id="D27" points="792.000 178.000 766.000 213.000 750.000 191.000" />
<polygon id="D28" points="243.000 244.000 254.000 273.000 240.000 303.000" />
<polygon id="D29" points="439.000 273.000 467.000 204.000 467.000 316.000" />
<polygon id="D30" points="68.000 201.000 97.000 163.000 80.000 232.000" />
<polygon id="D31" points="549.000 148.000 584.000 151.000 552.000 225.000" />
<polygon id="D32" points="564.000 131.000 544.000 63.000 621.000 79.000" />
<polygon id="D33" points="464.000 366.000 403.000 377.000 418.000 313.000" />
<polygon id="D34" points="240.000 212.000 213.000 10.000 249.000 89.000" />
<polygon id="D35" points="729.000 192.000 714.000 240.000 663.000 184.000" />
<polygon id="D36" points="171.000 172.000 188.000 213.000 116.000 223.000" />
<polygon id="D37" points="57.000 334.000 70.000 288.000 69.000 408.000" />
</g> 
 </g> 
 </svg>