<svg version="1.1" viewBox="0 0 820 620" xmlns="http://www.w3.org/2000/svg"> 
 <g transform="scale(1 -1)"> 
 <g transform="translate(0 -600)" fill="#ffcc99"> 
 <line id="x" x1="0" x2="820" y1="0" y2="0" stroke="#000000"/>
<polygon id="D21" points="84.395 0.039 131.164 38.021 197.000 0.000" />
<polygon id="D29" points="123.253 10.312 197.000 0.000 100.051 56.080" />
<polygon id="D19" points="140.995 72.031 136.676 25.358 197.000 0.000" />
<polygon id="D25" points="184.805 81.291 175.590 55.060 197.000 0.000" />
<polygon id="D4" points="201.538 62.010 197.044 0.044 300.000 0.000" />
<polygon id="D7" points="240.479 94.124 223.938 47.902 300.000 0.000" />
<polygon id="D13" points="258.253 66.017 300.000 0.000 316.589 84.290" />
<polygon id="D12" points="300.000 0.000 357.655 49.607 317.658 89.723" />
<polygon id="D8" points="343.278 0.000 349.887 20.033 300.000 0.000" />
<polygon id="D1" points="382.653 71.116 300.000 0.000 353.870 21.633" />
<polygon id="D16" points="344.000 0.000 406.686 69.163 394.249 92.450" />
<polygon id="D37" points="402.975 46.281 424.590 88.917 344.000 0.000" />
<polygon id="D23" points="344.000 0.000 412.117 0.082 426.661 64.870" />
<polygon id="D31" points="459.920 61.127 429.614 78.892 413.000 0.000" />
<polygon id="D10" points="473.133 32.757 477.167 83.598 413.000 0.000" />
<polygon id="D15" points="476.953 0.009 481.592 37.365 413.000 0.000" />
<polygon id="D3" points="487.921 88.869 477.000 0.000 527.410 62.896" />
<polygon id="D36" points="548.971 21.123 522.461 56.721 477.000 0.000" />
<polygon id="D17" points="477.000 0.000 548.868 0.015 567.522 26.568" />
<polygon id="D2" points="549.000 0.000 655.404 0.311 610.182 57.695" />
<polygon id="D34" points="549.000 0.000 697.270 139.818 619.531 101.170" />
<polygon id="D35" points="711.889 36.006 677.442 72.645 656.000 0.000" />
<polygon id="D6" points="705.663 31.994 656.000 0.000 754.086 0.306" />
<polygon id="D32" points="760.356 76.970 694.638 50.413 755.000 0.000" />
<polygon id="D9" points="815.519 44.311 759.871 70.009 755.000 0.000" />
<polygon id="D27" points="755.000 0.000 798.600 0.013 790.474 25.973" />
<polygon id="D20" points="799.000 0.000 871.691 44.103 833.482 92.499" />
<polygon id="D11" points="872.630 44.673 799.000 0.000 852.759 0.062" />
<polygon id="D18" points="893.281 91.670 853.000 0.000 911.116 41.322" />
<polygon id="D5" points="943.888 8.328 906.218 37.840 853.000 0.000" />
<polygon id="D24" points="943.888 0.000 993.600 105.080 943.888 111.221" />
<polygon id="D14" points="943.888 0.000 1016.211 8.333 975.021 65.808" />
<polygon id="D33" points="1073.091 41.105 1016.211 65.734 1016.211 0.000" />
<polygon id="D30" points="1054.955 27.998 1016.211 0.000 1085.631 15.193" />
<polygon id="D26" points="1085.631 0.000 1085.631 97.309 1148.154 52.143" />
<polygon id="D28" points="1141.904 17.982 1111.055 21.204 1085.631 0.000" />
<polygon id="D22" points="1210.467 53.805 1148.154 82.037 1148.154 0.000" />
</g> 
 </g> 
 </svg>