<svg version="1.1" viewBox="0 0 820 620" xmlns="http://www.w3.org/2000/svg"> 
 <g transform="scale(1 -1)"> 
 <g transform="translate(0 -600)" fill="#ffcc99"> 
 <line id="x" x1="0" x2="820" y1="0" y2="0" stroke="#000000"/><polygon id="D1" points="0.000 0.000 64.000 0.000 0.000 190.000" />
<polygon id="D2" points="34.000 110.000 189.000 0.000 51.000 220.000" />
<polygon id="D3" points="215.000 0.000 214.000 160.000 159.000 172.000" />
<polygon id="D4" points="277.000 266.000 232.000 0.000 329.000 211.000" />
<polygon id="D5" points="270.000 0.000 335.000 190.000 335.000 0.000" />
<polygon id="D6" points="341.000 118.000 538.000 159.000 499.000 225.000" />
<polygon id="D7" points="451.000 0.000 377.000 112.000 483.000 56.000" />
<polygon id="D8" points="479.000 14.000 541.000 0.000 554.000 68.000" />
<polygon id="D9" points="580.000 0.000 586.000 155.000 656.000 240.000" />
<polygon id="D10" points="673.000 102.000 591.000 11.000 655.000 0.000" />
<polygon id="D11" points="680.000 0.000 745.000 0.000 679.000 207.000" />
<polygon id="D12" points="776.000 294.000 791.000 0.000 727.000 190.000" />
</g> 
 </g> 
 </svg>