 <svg version="1.1" viewBox="0 0 961 866 " xmlns="http://www.w3.org/2000/svg">
    <g transform="scale(1 -1)">
    <g transform="translate(0 -866)">
	    <line id="y" x1="0" x2="0" y1="0" y2=" 866" fill="none" stroke="#212121" stroke-width="3"/> 
<polygon id="P1" points="539.0 98.0 549.0 98.0 599.0 118.0 569.0 158.0 519.0 198.0 489.0 138.0 " fill="#6B6B6B" stroke="#212121" stroke-width="2"/>
<polygon id="P2" points="559.0 178.0 569.0 178.0 609.0 248.0 519.0 238.0 " fill="#6B6B6B" stroke="#212121" stroke-width="2"/>
<polygon id="P3" points="389.0 78.0 459.0 68.0 599.0 68.0 479.0 88.0 459.0 178.0 509.0 248.0 599.0 258.0 499.0 298.0 " fill="#6B6B6B" stroke="#212121" stroke-width="2"/>
<polygon id="P4" points="320.0 98.0 330.0 98.0 370.0 118.0 360.0 158.0 330.0 198.0 300.0 158.0 280.0 118.0 " fill="#6B6B6B" stroke="#212121" stroke-width="2"/>
<polygon id="P5" points="380.0 208.0 390.0 188.0 430.0 208.0 380.0 228.0 390.0 288.0 360.0 248.0 340.0 208.0 " fill="#6B6B6B" stroke="#212121" stroke-width="2"/>
<polygon id="P6" points="352.0 287.0 445.0 305.0 386.0 366.0 291.0 296.0 " fill="#6B6B6B" stroke="#212121" stroke-width="2"/>
<polygon id="P7" points="319.0 18.0 293.0 53.0 365.0 80.0 238.0 73.0 257.0 15.0 " fill="#6B6B6B" stroke="#212121" stroke-width="2"/>
<polygon id="P8" points="637.0 248.0 516.0 330.0 426.0 238.0 462.0 302.0 451.0 350.0 613.0 348.0 761.0 346.0 754.0 231.0 685.0 183.0 " fill="#6B6B6B" stroke="#212121" stroke-width="2"/>
 <circle id="L" cx="479.0" cy="168.0" r="10" fill="#F42121" stroke="#000080" stroke-width="1"/>
 <polyline id="R" points="479.0 168.0 519.0 238.0 599.0 258.0 499.0 298.0 426.0 238.0 390.0 288.0 352.0 287.0 291.0 296.0 0.0 464.04 " fill="none" stroke="#000080" stroke-width="4"/>
</g>
    </g>
    </svg>